<svg version="1.1" id="Layer_1" xmlns="http://www.w3.org/2000/svg" xmlns:xlink="http://www.w3.org/1999/xlink" x="0px" y="0px"
	 width="100%" viewBox="0 0 200 120" enable-background="new 0 0 200 120" xml:space="preserve">
<path fill="#000000" opacity="1.000000" stroke="none" 
	d="
M201.000000,72.000000 
	C201.000000,88.321968 201.000000,104.643936 201.000000,120.982956 
	C134.391098,120.982956 67.782188,120.982956 1.086638,120.982956 
	C1.086638,81.085762 1.086638,41.171272 1.086638,1.128391 
	C67.666512,1.128391 134.333221,1.128391 201.000000,1.128391 
	C201.000000,20.756691 201.000000,40.409687 200.674164,60.841255 
	C196.807678,60.747639 193.300568,59.373589 189.717621,59.134190 
	C185.528641,58.854294 181.273560,59.563828 176.835724,59.484272 
	C174.079742,59.135342 171.535187,59.146255 168.564713,59.085060 
	C162.429489,59.060173 156.720184,59.107391 150.595718,59.071545 
	C147.204254,58.489342 144.227966,57.990204 141.385132,57.513447 
	C140.985443,56.087894 140.560196,54.571148 140.447708,53.033325 
	C141.171432,52.950386 141.582397,52.888519 142.262604,52.878891 
	C142.708221,52.628647 142.884598,52.326157 143.464951,52.010235 
	C148.022827,53.620827 147.823807,48.420422 150.205139,48.207954 
	C149.581161,49.616825 149.269974,50.573502 148.801559,52.013512 
	C152.013626,51.058346 152.666458,49.858265 150.453964,47.393116 
	C152.793076,43.117939 151.945419,41.402504 147.669800,40.978481 
	C146.465088,40.859005 145.303345,40.306305 144.058975,39.602921 
	C142.184036,38.274887 140.372025,37.296242 138.559998,36.317596 
	C138.025620,38.172409 137.491241,40.027218 136.645752,42.011147 
	C135.551300,42.472248 134.767944,42.804234 133.925079,42.795174 
	C133.210968,42.367287 132.556381,42.280445 131.514526,42.100437 
	C124.685623,39.809887 118.235329,41.072041 111.572418,41.932144 
	C111.358871,41.905407 110.963959,42.076656 110.567474,42.032425 
	C109.116333,42.063637 108.061684,42.139080 106.763786,42.144569 
	C106.354118,42.046806 106.187691,42.018997 105.911736,41.650711 
	C104.869789,41.258739 103.937386,41.207253 102.672981,41.080521 
	C101.892418,41.050732 101.443840,41.096184 100.618759,41.070999 
	C98.829514,41.398949 97.416786,41.797535 95.674156,42.113770 
	C94.893768,42.077263 94.443268,42.123112 93.915665,41.834785 
	C93.206871,41.365002 92.575188,41.229389 91.607056,40.943726 
	C88.861320,40.555817 86.452019,40.317955 83.673401,39.995560 
	C81.498253,39.904404 79.692444,39.897781 77.465889,39.944889 
	C73.311790,39.410107 71.214996,40.772594 72.040810,44.748245 
	C72.756882,48.195610 73.910744,51.552040 74.465187,54.972145 
	C73.373711,59.714176 72.688156,64.432724 71.923409,69.322411 
	C71.844223,69.493546 72.000275,69.836876 72.000717,70.137085 
	C72.312233,70.652214 72.623314,70.867149 72.964989,71.040451 
	C72.995583,70.998825 72.918320,71.068420 72.950562,71.453941 
	C72.975029,73.634796 72.840019,75.440933 72.991211,77.222778 
	C73.186676,79.526520 73.610680,81.810875 73.957474,84.060349 
	C73.978661,84.017128 73.894623,84.064102 74.067802,84.410156 
	C76.157852,84.442184 78.074715,84.128166 80.387955,83.899559 
	C81.858734,83.923660 82.933136,83.862358 84.334457,83.880814 
	C85.105560,83.925941 85.549759,83.891296 86.250031,83.927574 
	C86.676300,83.949348 86.846497,83.900215 87.409828,83.910774 
	C88.859436,83.921524 89.915894,83.872581 91.351936,83.895256 
	C92.498283,83.901451 93.265045,83.836037 94.389999,83.856750 
	C95.480324,83.900452 96.212448,83.858025 97.283646,83.900879 
	C98.421997,83.592552 99.221268,83.198936 100.337906,82.935265 
	C102.107208,83.390793 103.559143,83.716370 105.330154,83.958168 
	C106.422600,83.622955 107.195961,83.371529 108.115906,83.438721 
	C109.180176,83.788567 110.097855,83.819801 111.388008,83.916199 
	C113.164825,83.681862 114.569183,83.382370 116.133224,83.432983 
	C118.893822,83.858002 121.524864,84.205162 124.086143,83.921783 
	C126.140724,83.694458 128.110687,82.702293 130.325302,82.010284 
	C130.532394,81.971031 130.926849,81.822243 131.175537,81.901070 
	C131.593216,82.020988 131.762222,82.062080 132.028275,82.373466 
	C133.082153,82.958534 134.038971,83.273315 135.000443,83.537506 
	C135.005096,83.486931 135.004135,83.587929 135.603180,83.766930 
	C137.438385,83.840218 138.674530,83.734497 139.892380,83.589676 
	C139.874084,83.550568 139.895920,83.631989 140.229660,83.763153 
	C142.381409,83.611938 144.199432,83.329552 146.322876,83.018463 
	C146.785400,82.349052 146.942459,81.708336 147.479263,81.047798 
	C149.622589,81.040512 151.386154,81.053040 153.527039,81.038452 
	C154.623199,80.699966 155.511703,79.944901 156.035034,80.144989 
	C162.142380,82.480072 165.256042,79.496765 167.554108,74.092766 
	C171.353119,73.701698 174.718719,73.344780 178.122757,73.352684 
	C183.004913,75.042191 187.423965,72.812660 192.012329,72.021538 
	C192.110519,72.004608 192.108337,71.405380 192.344818,71.056786 
	C192.536636,71.035782 192.905930,71.147308 192.928482,71.388969 
	C192.951035,71.630630 193.122452,72.084785 193.070496,72.463776 
	C194.725723,76.064301 196.705017,75.900940 198.980347,73.394882 
	C199.515945,72.804977 200.319641,72.458481 201.000000,72.000000 
M14.310435,36.919296 
	C13.907035,37.285286 13.503634,37.651276 12.747292,38.629242 
	C10.910830,41.419601 9.074369,44.209961 7.038459,47.648975 
	C6.343201,48.773170 5.647942,49.897366 4.244984,51.244404 
	C4.132661,53.167374 4.020338,55.090343 4.002882,57.526375 
	C4.057510,57.691494 4.112139,57.856609 3.774947,58.762947 
	C0.851177,69.396355 6.339885,77.013016 13.211201,84.858383 
	C17.113552,86.957581 21.015902,89.056778 25.378891,91.815552 
	C26.512342,92.009399 27.647367,92.194519 28.779005,92.398438 
	C39.945568,94.410675 49.718414,91.944244 57.630058,83.387802 
	C57.630058,83.387802 57.647118,83.341415 58.215996,83.205574 
	C58.540077,82.495140 58.864159,81.784698 59.614395,80.919067 
	C59.900913,80.733330 60.020840,80.471336 60.715401,80.040146 
	C61.271816,79.750343 62.010254,79.600754 62.357578,79.149879 
	C68.418953,71.281425 69.167366,62.257267 67.342438,52.982433 
	C66.831657,50.386482 64.478455,48.153046 63.037052,45.283955 
	C63.037052,45.283955 62.803688,44.871300 62.648159,44.358482 
	C62.104183,43.919621 61.560204,43.480755 60.896278,42.398438 
	C59.893936,41.270058 58.891590,40.141678 57.881336,38.344349 
	C56.951683,37.859180 56.022030,37.374008 55.009201,36.951298 
	C55.009201,36.951298 55.089497,36.905033 54.823189,36.272243 
	C52.865280,35.174061 50.907372,34.075878 48.974789,32.183277 
	C47.869247,31.440565 46.812660,30.152332 45.649837,30.047989 
	C40.119083,29.551708 34.559418,29.377657 28.307106,29.150402 
	C26.203289,30.430996 24.099472,31.711590 21.507917,33.026711 
	C21.507917,33.026711 21.030724,33.133343 20.330765,32.998619 
	C18.523035,34.307518 16.715305,35.616417 14.978916,36.972977 
	C14.978916,36.972977 14.961337,36.888996 14.310435,36.919296 
z"/>
<path fill="#E2F7E7" opacity="1.000000" stroke="none" 
	d="
M177.047150,59.844116 
	C181.273560,59.563828 185.528641,58.854294 189.717621,59.134190 
	C193.300568,59.373589 196.807678,60.747639 200.674164,61.309914 
	C201.000000,64.361290 201.000000,67.722572 201.000000,71.541931 
	C200.319641,72.458481 199.515945,72.804977 198.980347,73.394882 
	C196.705017,75.900940 194.725723,76.064301 193.431702,72.583023 
	C194.767014,72.382118 195.689163,72.440956 196.611298,72.499794 
	C196.599106,69.121429 197.453110,65.407448 196.313385,62.465958 
	C195.318466,59.898201 191.909073,59.226288 188.620575,61.075874 
	C185.545364,61.038536 182.856400,61.045773 179.902756,61.173157 
	C179.453156,61.624718 179.268219,61.956131 179.014740,62.483074 
	C178.781174,62.923992 178.552048,63.065891 177.955719,63.069042 
	C177.449524,63.021603 177.246445,63.009434 176.973099,62.817352 
	C176.902847,62.637444 176.882568,62.251705 176.918365,61.851070 
	C176.985153,60.914997 177.016144,60.379555 177.047150,59.844116 
z"/>
<path fill="#4AA86F" opacity="1.000000" stroke="none" 
	d="
M57.889248,39.013298 
	C58.891590,40.141678 59.893936,41.270058 61.033730,42.949818 
	C61.171177,43.501198 61.113960,43.982891 60.764160,44.021053 
	C56.665745,46.209846 59.706333,49.227833 59.468006,51.818672 
	C59.264202,54.034233 59.702328,56.335842 59.309212,58.499973 
	C58.844913,61.055973 57.792446,63.505131 56.620003,66.000366 
	C55.495136,66.000854 54.745220,66.001595 53.820778,65.761887 
	C52.892765,65.330269 52.139282,65.139099 51.281113,64.600891 
	C50.984116,63.555435 50.791805,62.857029 50.875557,62.005985 
	C50.741890,61.234417 50.332165,60.615482 49.810936,59.793129 
	C49.504780,59.344208 49.272583,59.141762 48.997665,58.560238 
	C48.986599,54.099426 48.980709,50.060749 48.984116,45.643776 
	C48.992432,44.509216 48.991455,43.752960 48.995087,42.607357 
	C48.780853,37.869446 51.862251,37.303654 55.089497,36.905033 
	C55.089497,36.905033 55.009201,36.951298 55.068024,37.266151 
	C56.047649,38.058437 56.968449,38.535866 57.889248,39.013298 
z"/>
<path fill="#3A8CAE" opacity="1.000000" stroke="none" 
	d="
M4.952684,51.021561 
	C5.647942,49.897366 6.343201,48.773170 7.466663,47.271282 
	C8.977197,45.723465 9.892759,44.304020 11.181279,43.442154 
	C13.073362,42.176579 15.232007,41.309521 17.277082,40.272671 
	C17.851734,42.180523 18.426386,44.088371 18.999371,46.435715 
	C18.709084,51.455585 18.339739,56.032753 18.156919,60.617355 
	C18.005775,64.407661 18.074991,68.206741 17.656227,71.989670 
	C16.178350,69.924149 15.081997,67.875504 14.005846,65.816307 
	C12.995207,63.882473 12.005916,61.937481 10.854791,59.655956 
	C9.531891,56.548557 10.150104,52.162395 4.954132,52.679222 
	C4.929039,51.906582 4.940861,51.464069 4.952684,51.021561 
z"/>
<path fill="#46949C" opacity="1.000000" stroke="none" 
	d="
M24.918255,91.155968 
	C21.015902,89.056778 17.113552,86.957581 13.092510,84.169342 
	C12.998008,82.971977 13.022196,82.463646 13.408098,82.018509 
	C15.892134,82.813492 18.014456,83.545280 20.517427,84.408325 
	C19.921040,81.154114 19.522793,78.981064 19.458935,76.841637 
	C21.518215,76.888206 23.243105,76.901161 25.057655,77.301453 
	C27.757011,78.108353 30.366709,78.527931 33.353958,78.964005 
	C34.486351,78.986694 35.241192,78.992889 36.052536,79.335670 
	C37.048698,80.448975 37.988354,81.225685 38.687469,81.803566 
	C37.953663,85.600319 31.689390,84.149971 32.723732,89.301590 
	C29.934776,90.102348 27.426516,90.629158 24.918255,91.155968 
z"/>
<path fill="#EDEFF1" opacity="1.000000" stroke="none" 
	d="
M111.785973,41.958878 
	C118.235329,41.072041 124.685623,39.809887 131.409897,42.498177 
	C131.792175,43.504883 131.891800,44.020683 131.994186,44.517284 
	C131.996948,44.498081 132.025848,44.472195 131.630951,44.525295 
	C128.533997,47.328293 130.597168,49.494141 132.085938,52.081440 
	C132.040482,52.908974 132.021301,53.382229 131.610626,53.813564 
	C129.875244,53.639149 128.533600,53.427204 127.187027,53.389042 
	C123.127884,53.274006 119.066818,53.226562 115.002571,52.862511 
	C115.000099,52.378742 115.001572,52.185230 115.342117,51.945534 
	C116.121819,51.258102 116.562454,50.616852 117.003441,49.989731 
	C117.003799,50.003860 116.975639,50.006409 117.363945,50.026100 
	C119.450958,47.785011 120.187714,45.646763 116.991821,44.005180 
	C117.000160,43.999840 116.989685,44.016659 117.025116,43.619225 
	C115.302361,42.800823 113.544167,42.379852 111.785973,41.958878 
z"/>
<path fill="#6AAC79" opacity="1.000000" stroke="none" 
	d="
M72.000275,69.836876 
	C72.000275,69.836876 71.844223,69.493546 72.267471,69.553009 
	C74.093178,66.041710 75.495621,62.470959 77.502739,57.360680 
	C79.153763,57.714066 82.154388,58.356323 85.100815,59.414501 
	C85.366798,61.916313 86.033958,64.023201 85.909386,66.082184 
	C85.785294,68.133064 85.456924,70.802948 84.132675,71.974594 
	C82.772987,73.177605 80.099823,72.896065 77.676613,73.213882 
	C76.917656,73.104324 76.483574,73.045097 75.962814,72.742325 
	C75.574310,72.381096 75.272484,72.263420 74.799347,71.846878 
	C74.058136,71.388153 73.488228,71.228287 72.918320,71.068420 
	C72.918320,71.068420 72.995583,70.998825 73.120735,70.671120 
	C72.830681,70.174568 72.415482,70.005722 72.000275,69.836876 
z"/>
<path fill="#559E87" opacity="1.000000" stroke="none" 
	d="
M25.148573,91.485764 
	C27.426516,90.629158 29.934776,90.102348 33.170517,89.295876 
	C36.014809,88.993080 38.176403,89.229729 40.236012,88.874710 
	C42.349438,88.510429 44.080433,87.678291 41.773285,85.039154 
	C39.946274,82.949234 40.501816,82.157265 44.369080,81.022530 
	C47.818192,81.686745 50.898670,82.339386 54.437134,83.004135 
	C55.801094,83.155563 56.707073,83.294876 57.613049,83.434181 
	C49.718414,91.944244 39.945568,94.410675 28.779005,92.398438 
	C27.647367,92.194519 26.512342,92.009399 25.148573,91.485764 
z"/>
<path fill="#50A86A" opacity="1.000000" stroke="none" 
	d="
M57.621552,83.410995 
	C56.707073,83.294876 55.801094,83.155563 54.444298,82.623024 
	C52.995697,79.824341 51.997917,77.418892 51.284660,74.883041 
	C55.401806,72.674294 54.218914,69.205330 53.995304,66.002335 
	C54.745220,66.001595 55.495136,66.000854 56.928638,66.042671 
	C59.878777,67.946693 62.125160,70.001198 64.061172,65.678047 
	C64.242668,65.272758 65.211403,65.220016 65.865479,65.385277 
	C63.935608,70.555664 61.954887,75.344376 59.974167,80.133080 
	C60.020840,80.471336 59.900913,80.733330 59.038757,81.022354 
	C58.191124,81.864235 57.919121,82.602821 57.647118,83.341415 
	C57.647118,83.341415 57.630058,83.387802 57.621552,83.410995 
z"/>
<path fill="#50A85F" opacity="1.000000" stroke="none" 
	d="
M65.814629,65.003593 
	C65.211403,65.220016 64.242668,65.272758 64.061172,65.678047 
	C62.125160,70.001198 59.878777,67.946693 57.303589,66.042923 
	C57.792446,63.505131 58.844913,61.055973 59.309212,58.499973 
	C59.702328,56.335842 59.264202,54.034233 59.468006,51.818672 
	C59.706333,49.227833 56.665745,46.209846 60.936592,44.192669 
	C61.907116,44.507847 62.355404,44.689571 62.803688,44.871300 
	C62.803688,44.871300 63.037052,45.283955 62.928169,45.923725 
	C63.817738,52.710194 64.816185,58.856895 65.814629,65.003593 
z"/>
<path fill="#429699" opacity="1.000000" stroke="none" 
	d="
M21.030724,33.133343 
	C21.030724,33.133343 21.507917,33.026711 22.218662,33.008335 
	C27.946699,32.988583 32.963989,32.987209 37.987190,33.388290 
	C37.999866,34.862682 38.006638,35.934624 37.964722,37.379162 
	C36.704296,39.146778 35.729767,41.310452 34.230320,41.773186 
	C31.312075,42.673771 28.099562,42.620827 25.004904,42.578449 
	C24.538036,37.094109 20.807140,36.999374 17.230904,36.732056 
	C18.635775,35.363575 19.833250,34.248459 21.030724,33.133343 
z"/>
<path fill="#F2F5F5" opacity="1.000000" stroke="none" 
	d="
M74.871109,54.948662 
	C73.910744,51.552040 72.756882,48.195610 72.040810,44.748245 
	C71.214996,40.772594 73.311790,39.410107 77.808304,40.067642 
	C79.691612,41.757824 80.811760,43.378979 81.566078,44.999886 
	C80.467957,44.998528 79.735664,44.997421 78.936554,44.657913 
	C77.861778,43.938328 76.853813,43.557144 75.845848,43.175961 
	C75.740074,43.620087 75.634308,44.064217 75.528534,44.508343 
	C76.684471,44.673447 77.840401,44.838551 78.935150,45.335953 
	C77.774689,46.368927 76.675407,47.069599 75.321411,47.932621 
	C75.891502,48.630802 76.440498,49.303146 76.885513,50.283009 
	C78.170731,51.001682 79.894844,52.116543 80.867935,51.653416 
	C82.212303,51.013584 83.588554,49.302662 83.878059,47.838314 
	C84.372169,45.339073 84.032288,42.674953 84.042725,40.080093 
	C86.452019,40.317955 88.861320,40.555817 91.424377,41.273048 
	C89.724007,42.734547 86.548508,43.468727 86.307404,44.753548 
	C85.884270,47.008472 87.258583,49.600700 87.930023,52.389130 
	C86.379692,54.383934 82.691689,50.548588 81.680038,54.966545 
	C79.107880,54.972511 76.989494,54.960587 74.871109,54.948662 
z"/>
<path fill="#F3F4F6" opacity="1.000000" stroke="none" 
	d="
M141.993362,52.826653 
	C141.582397,52.888519 141.171432,52.950386 140.201233,53.124413 
	C139.426880,53.507492 139.211746,53.778416 138.751053,54.030041 
	C138.505508,54.010742 138.014099,53.977081 137.887451,53.710800 
	C137.492920,52.920837 137.225021,52.397156 137.178909,51.574120 
	C137.544388,48.537720 137.688080,45.800674 138.209473,43.051468 
	C139.944168,43.182831 141.301132,43.326359 143.501007,43.559044 
	C142.398636,41.961384 141.799240,41.092682 141.012390,39.952309 
	C142.174454,39.952309 143.148178,39.952309 144.121887,39.952309 
	C145.303345,40.306305 146.465088,40.859005 147.669800,40.978481 
	C151.945419,41.402504 152.793076,43.117939 150.494400,47.430420 
	C150.475418,47.857357 150.517899,47.755764 150.517899,47.755764 
	C147.823807,48.420422 148.022827,53.620827 143.211609,51.994053 
	C142.386307,51.972237 142.218307,51.953167 141.979340,51.807285 
	C141.814636,51.641571 141.720901,51.602665 141.627167,51.563759 
	C141.732468,51.723846 141.837753,51.883938 141.964783,52.239098 
	C141.986496,52.434166 141.993362,52.826649 141.993362,52.826653 
z"/>
<path fill="#DEF7E2" opacity="1.000000" stroke="none" 
	d="
M167.120697,74.126915 
	C165.256042,79.496765 162.142380,82.480072 156.035034,80.144989 
	C155.511703,79.944901 154.623199,80.699966 153.243042,80.844772 
	C151.701950,79.077759 150.822128,77.477303 149.805939,75.538818 
	C147.357178,75.139717 145.010162,75.305229 142.741394,74.958595 
	C140.073364,74.550949 137.473221,73.698982 135.156097,73.018890 
	C135.676559,72.980286 135.884567,72.962479 136.448303,72.956039 
	C137.544281,71.981361 138.284546,70.995323 139.268341,70.006683 
	C139.511871,70.004097 139.998962,70.001945 140.291580,70.231293 
	C143.413315,74.915176 147.029785,73.434982 151.051453,71.853287 
	C151.951584,71.946716 152.467255,71.985207 153.036316,72.420776 
	C153.074020,73.875572 153.058334,74.933289 153.068512,76.338806 
	C154.058121,77.141670 155.021896,77.596748 156.283936,78.179176 
	C158.048386,78.229118 159.514542,78.151711 161.317535,78.021072 
	C161.864334,77.603401 162.074280,77.238968 162.376648,76.875862 
	C162.469055,76.877197 162.598907,76.745621 162.943329,76.741028 
	C166.954727,72.031677 162.408859,72.622353 160.110458,71.467773 
	C160.759567,70.388496 161.388290,69.618500 162.337921,68.871513 
	C163.446518,68.589081 164.234222,68.283638 165.054443,68.341705 
	C165.764862,70.512444 166.442780,72.319679 167.120697,74.126915 
z"/>
<path fill="#5387AB" opacity="1.000000" stroke="none" 
	d="
M13.046383,81.955322 
	C13.022196,82.463646 12.998008,82.971977 12.942701,83.860809 
	C6.339885,77.013016 0.851177,69.396355 4.320119,58.474327 
	C5.579202,61.123302 6.293113,64.060898 7.053828,67.394829 
	C7.770857,71.579712 8.853729,75.105568 11.764916,77.951035 
	C12.650579,78.816696 12.644204,80.595009 13.046383,81.955322 
z"/>
<path fill="#EFF2F1" opacity="1.000000" stroke="none" 
	d="
M72.950562,71.453941 
	C73.488228,71.228287 74.058136,71.388153 74.932999,72.039719 
	C75.461540,72.766663 75.732048,72.918144 76.049484,72.985870 
	C76.483574,73.045097 76.917656,73.104324 77.837921,73.485054 
	C79.262665,74.507843 80.201218,75.209129 81.359436,75.947800 
	C81.579102,75.985176 81.993202,76.149857 81.830872,76.474693 
	C81.109566,79.137733 80.550575,81.475945 79.991585,83.814148 
	C78.074715,84.128166 76.157852,84.442184 74.358383,84.364182 
	C74.799629,83.575905 75.123474,83.179657 75.447311,82.783401 
	C75.187065,82.700180 74.729698,82.498413 74.697342,82.552223 
	C74.401581,83.044044 74.179718,83.580292 73.936287,84.103577 
	C73.610680,81.810875 73.186676,79.526520 72.991211,77.222778 
	C72.840019,75.440933 72.975029,73.634796 72.950562,71.453941 
z"/>
<path fill="#F0F3F6" opacity="1.000000" stroke="none" 
	d="
M115.003052,51.991714 
	C115.001572,52.185230 115.000099,52.378742 114.886520,53.182831 
	C113.859344,54.562939 112.944283,55.332478 112.109451,55.831688 
	C110.844147,55.373009 109.498604,55.184658 108.053574,54.726547 
	C107.636932,54.256317 107.319763,54.055843 107.001114,53.469856 
	C106.999748,52.056282 106.999878,51.028217 107.000000,50.000076 
	C107.000000,50.000000 106.999352,50.000927 107.348923,49.933701 
	C107.468002,47.315826 107.237518,44.765175 107.007034,42.214523 
	C108.061684,42.139080 109.116333,42.063637 110.591690,42.415947 
	C110.733818,44.719711 110.455254,46.595718 110.176682,48.471729 
	C110.697632,48.613354 111.218575,48.754982 111.739525,48.896610 
	C111.488014,44.831276 113.254845,43.225067 116.989685,44.016659 
	C116.989685,44.016659 117.000160,43.999840 116.959702,44.432594 
	C116.938042,46.579037 116.956841,48.292725 116.975639,50.006409 
	C116.975639,50.006409 117.003799,50.003860 116.690018,49.962570 
	C115.959343,49.964817 115.542450,50.008350 114.882080,50.044388 
	C114.353294,50.114914 114.067970,50.192936 113.782646,50.270958 
	C114.070229,50.517052 114.357803,50.763145 114.759552,51.245850 
	C114.916832,51.652206 114.959938,51.821960 115.003052,51.991714 
z"/>
<path fill="#4891A5" opacity="1.000000" stroke="none" 
	d="
M17.023506,36.985416 
	C20.807140,36.999374 24.538036,37.094109 24.673035,42.589363 
	C23.568514,43.293102 22.791832,43.601543 21.836407,43.989159 
	C21.657663,44.068333 21.268826,44.109241 20.985344,44.210793 
	C20.134922,44.873634 19.567980,45.434929 19.001038,45.996223 
	C18.426386,44.088371 17.851734,42.180523 17.277082,40.272671 
	C15.232007,41.309521 13.073362,42.176579 11.181279,43.442154 
	C9.892759,44.304020 8.977197,45.723465 7.566388,46.946953 
	C9.074369,44.209961 10.910830,41.419601 13.216040,38.291451 
	C14.110304,37.598770 14.535821,37.243885 14.961338,36.888996 
	C14.961337,36.888996 14.978916,36.972977 15.295465,36.972309 
	C16.082512,36.976231 16.553009,36.980824 17.023506,36.985416 
z"/>
<path fill="#DDF8E1" opacity="1.000000" stroke="none" 
	d="
M74.465187,54.972145 
	C76.989494,54.960587 79.107880,54.972511 82.072098,54.980846 
	C84.577644,56.186745 86.237358,57.396229 87.443909,58.697098 
	C86.378838,58.858509 85.766922,58.928543 85.155014,58.998581 
	C82.154388,58.356323 79.153763,57.714066 77.502739,57.360680 
	C75.495621,62.470959 74.093178,66.041710 72.346664,69.381866 
	C72.688156,64.432724 73.373711,59.714176 74.465187,54.972145 
z"/>
<path fill="#E6E8E9" opacity="1.000000" stroke="none" 
	d="
M130.118210,82.049538 
	C128.110687,82.702293 126.140724,83.694458 124.086143,83.921783 
	C121.524864,84.205162 118.893822,83.858002 116.144562,82.808304 
	C116.269165,80.196266 116.542130,78.559021 116.928268,77.051422 
	C117.677681,77.073891 118.313911,76.966698 118.983986,77.144119 
	C120.811584,78.456367 122.915672,80.446854 123.226593,76.074829 
	C123.460686,76.002014 123.931435,75.864952 124.109016,76.143768 
	C125.502342,77.277336 126.718086,78.132088 127.977631,79.272835 
	C128.320114,79.997589 128.618790,80.436348 129.057556,81.126953 
	C129.504517,81.602371 129.811356,81.825958 130.118210,82.049538 
z"/>
<path fill="#CEEFD6" opacity="1.000000" stroke="none" 
	d="
M192.152985,71.077789 
	C192.108337,71.405380 192.110519,72.004608 192.012329,72.021538 
	C187.423965,72.812660 183.004913,75.042191 178.443405,73.269928 
	C179.164337,72.769646 179.603073,72.716949 180.441071,72.703339 
	C181.293076,71.820580 182.059662,70.927734 182.147934,69.972237 
	C182.752747,63.425011 182.706940,63.420780 189.024689,63.945175 
	C188.984528,64.093819 188.834473,64.362740 188.701019,64.695259 
	C187.636536,68.304482 187.052673,71.375443 192.152985,71.077789 
z"/>
<path fill="#7DB28A" opacity="1.000000" stroke="none" 
	d="
M180.041794,72.664253 
	C179.603073,72.716949 179.164337,72.769646 178.404968,72.905106 
	C174.718719,73.344780 171.353119,73.701698 167.554108,74.092766 
	C166.442780,72.319679 165.764862,70.512444 165.101868,68.294853 
	C165.116776,67.884499 165.211761,67.790787 165.480774,67.894867 
	C167.727493,70.048653 169.003418,69.115700 170.375488,66.999977 
	C171.500000,67.001877 172.249802,67.002579 173.185944,67.247185 
	C174.250351,67.328224 175.128433,67.165359 176.266891,67.221634 
	C177.698776,69.181931 178.870285,70.923088 180.041794,72.664253 
z"/>
<path fill="#D5F5DB" opacity="1.000000" stroke="none" 
	d="
M65.865479,65.385277 
	C64.816185,58.856895 63.817738,52.710194 62.894844,46.158409 
	C64.478455,48.153046 66.831657,50.386482 67.342438,52.982433 
	C69.167366,62.257267 68.418953,71.281425 62.357578,79.149879 
	C62.010254,79.600754 61.271816,79.750343 60.344784,80.086609 
	C61.954887,75.344376 63.935608,70.555664 65.865479,65.385277 
z"/>
<path fill="#E0F6E6" opacity="1.000000" stroke="none" 
	d="
M138.996613,54.049343 
	C139.211746,53.778416 139.426880,53.507492 139.888489,53.145485 
	C140.560196,54.571148 140.985443,56.087894 141.385132,57.513447 
	C144.227966,57.990204 147.204254,58.489342 150.604889,59.327671 
	C151.039520,59.837406 151.049805,60.007954 151.023529,60.455490 
	C150.650314,61.159988 150.313675,61.587505 149.636932,61.810791 
	C147.198151,61.408066 145.099487,61.209576 142.813354,60.819031 
	C142.540512,61.615990 142.084564,62.790695 142.463562,63.547020 
	C142.937607,64.493011 144.097961,65.095078 144.704147,65.895050 
	C143.600891,65.955307 142.755554,65.966118 141.543854,65.981598 
	C140.443420,65.990135 139.709320,65.993980 138.933014,65.605255 
	C138.268372,63.536415 137.645920,61.860153 137.059692,59.838318 
	C138.532486,57.958679 140.556610,56.629765 138.996613,54.049343 
z"/>
<path fill="#358BBA" opacity="1.000000" stroke="none" 
	d="
M7.007025,66.998497 
	C6.293113,64.060898 5.579202,61.123302 4.516029,58.103714 
	C4.112139,57.856609 4.057510,57.691494 3.997278,56.919937 
	C4.324799,55.212120 4.657924,54.110737 4.991049,53.009357 
	C10.150104,52.162395 9.531891,56.548557 10.852528,60.055016 
	C11.160664,63.822868 10.701360,66.452614 7.007025,66.998497 
z"/>
<path fill="#4CA17C" opacity="1.000000" stroke="none" 
	d="
M54.956345,36.588638 
	C51.862251,37.303654 48.780853,37.869446 48.649117,42.546158 
	C45.631424,39.763100 43.202114,36.557259 44.360329,31.993141 
	C46.131535,32.271481 47.540497,32.624588 48.949463,32.977695 
	C50.907372,34.075878 52.865280,35.174061 54.956345,36.588638 
z"/>
<path fill="#70A57E" opacity="1.000000" stroke="none" 
	d="
M189.006821,61.120445 
	C191.909073,59.226288 195.318466,59.898201 196.313385,62.465958 
	C197.453110,65.407448 196.599106,69.121429 196.611298,72.499794 
	C195.689163,72.440956 194.767014,72.382118 193.483658,72.204033 
	C193.122452,72.084785 192.951035,71.630630 193.258484,71.200890 
	C192.323318,68.388008 195.569382,62.690796 188.834473,64.362740 
	C188.834473,64.362740 188.984528,64.093819 189.004150,63.611923 
	C189.018112,62.460171 189.012466,61.790306 189.006821,61.120445 
z"/>
<path fill="#F0F3F6" opacity="1.000000" stroke="none" 
	d="
M96.004051,42.196121 
	C97.416786,41.797535 98.829514,41.398949 100.606400,41.445564 
	C100.641701,44.609875 100.312836,47.328983 100.023796,50.375443 
	C100.374863,51.754635 100.686119,52.806480 100.710915,53.893333 
	C99.598709,53.665062 98.772957,53.401787 97.915329,52.798195 
	C96.579437,51.301270 95.275429,50.144661 94.046036,48.592545 
	C94.225258,47.133011 94.329872,46.068989 94.723938,44.923218 
	C95.343597,43.959690 95.673828,43.077904 96.004051,42.196121 
z"/>
<path fill="#5B9996" opacity="1.000000" stroke="none" 
	d="
M37.981281,32.985836 
	C32.963989,32.987209 27.946699,32.988583 22.462532,32.991074 
	C24.099472,31.711590 26.203289,30.430996 28.869606,29.462463 
	C32.295479,30.213999 35.158852,30.653471 38.010326,31.408220 
	C37.992714,32.144276 37.986996,32.565056 37.981281,32.985836 
M35.419628,31.484301 
	C35.419628,31.484301 35.522541,31.426012 35.419628,31.484301 
z"/>
<path fill="#E7E9E9" opacity="1.000000" stroke="none" 
	d="
M80.387955,83.899559 
	C80.550575,81.475945 81.109566,79.137733 82.084282,76.413803 
	C82.668861,76.069046 82.837700,76.110016 83.000122,76.480881 
	C82.808395,77.942429 82.623077,79.074074 82.286652,81.128502 
	C84.010017,79.252365 85.066681,78.102036 86.412231,76.880936 
	C87.469315,76.919312 88.237495,77.028450 89.001541,77.359680 
	C88.997398,77.581757 89.002602,78.025963 89.001968,78.267548 
	C89.001335,78.509132 89.005203,78.992287 88.749596,79.207329 
	C88.001549,80.898605 87.509117,82.374847 87.016685,83.851082 
	C86.846497,83.900215 86.676300,83.949348 86.251785,83.595322 
	C85.852844,82.371895 85.708237,81.551636 85.563629,80.731369 
	C85.287331,80.730339 85.011040,80.729317 84.734749,80.728287 
	C84.492348,81.752541 84.249947,82.776794 84.007545,83.801048 
	C82.933136,83.862358 81.858734,83.923660 80.387955,83.899559 
z"/>
<path fill="#A09FA0" opacity="1.000000" stroke="none" 
	d="
M83.673401,39.995560 
	C84.032288,42.674953 84.372169,45.339073 83.878059,47.838314 
	C83.588554,49.302662 82.212303,51.013584 80.867935,51.653416 
	C79.894844,52.116543 78.170731,51.001682 77.305252,50.343006 
	C82.147835,50.773453 82.425697,48.197472 81.931908,45.000137 
	C80.811760,43.378979 79.691612,41.757824 78.229050,40.013912 
	C79.692444,39.897781 81.498253,39.904404 83.673401,39.995560 
z"/>
<path fill="#F0F3F6" opacity="1.000000" stroke="none" 
	d="
M103.004974,41.155762 
	C103.937386,41.207253 104.869789,41.258739 105.642326,41.875633 
	C105.988083,44.961002 106.493713,47.480965 106.999352,50.000927 
	C106.999352,50.000927 107.000000,50.000000 106.702667,50.154030 
	C105.936050,51.492378 105.466759,52.676693 104.667511,53.932739 
	C103.892548,53.956161 103.447533,53.907856 102.997787,53.536491 
	C102.663925,52.476028 102.334793,51.738625 102.005753,50.576172 
	C102.338890,47.152664 102.671928,44.154213 103.004974,41.155762 
z"/>
<path fill="#EFF2F1" opacity="1.000000" stroke="none" 
	d="
M107.969330,83.120102 
	C107.195961,83.371529 106.422600,83.622955 105.326767,83.545944 
	C104.456497,81.848198 103.908699,80.478889 103.360893,79.109573 
	C101.970657,79.716797 100.580414,80.324013 98.960953,80.859016 
	C98.731728,80.786804 98.258308,80.717186 98.083702,80.484787 
	C97.286705,79.547493 96.664307,78.842598 96.020378,77.822716 
	C95.985710,77.297638 95.972580,77.087555 96.152222,76.541779 
	C100.244026,76.706749 104.143074,77.207428 108.032722,78.120041 
	C108.024605,79.356003 108.025879,80.180031 108.021347,81.356834 
	C108.000137,82.179771 107.984734,82.649940 107.969330,83.120102 
z"/>
<path fill="#ECEFEF" opacity="1.000000" stroke="none" 
	d="
M144.058975,39.602921 
	C143.148178,39.952309 142.174454,39.952309 141.012390,39.952309 
	C141.799240,41.092682 142.398636,41.961384 143.501007,43.559044 
	C141.301132,43.326359 139.944168,43.182831 138.020065,43.072502 
	C137.452942,43.105705 137.075043,43.163383 137.042938,42.843281 
	C136.992859,42.309464 136.974869,42.095745 136.956863,41.882027 
	C137.491241,40.027218 138.025620,38.172409 138.559998,36.317596 
	C140.372025,37.296242 142.184036,38.274887 144.058975,39.602921 
z"/>
<path fill="#DFFCE3" opacity="1.000000" stroke="none" 
	d="
M188.701019,64.695259 
	C195.569382,62.690796 192.323318,68.388008 193.235931,70.959229 
	C192.905930,71.147308 192.536636,71.035782 192.344818,71.056786 
	C187.052673,71.375443 187.636536,68.304482 188.701019,64.695259 
z"/>
<path fill="#F2F4F4" opacity="1.000000" stroke="none" 
	d="
M116.815086,76.921776 
	C116.542130,78.559021 116.269165,80.196266 115.984871,82.458191 
	C114.569183,83.382370 113.164825,83.681862 111.420799,83.598251 
	C111.355225,82.130928 111.629318,81.046707 112.062302,79.334023 
	C110.990158,80.205795 110.518974,80.588913 109.977890,80.569824 
	C109.338272,79.245537 108.768547,78.323448 108.384766,77.176559 
	C108.687828,76.609154 108.804939,76.266548 109.322388,75.957199 
	C112.208153,75.377159 114.057945,79.604317 116.815086,76.921776 
z"/>
<path fill="#EFF3F3" opacity="1.000000" stroke="none" 
	d="
M136.645752,42.011143 
	C136.974869,42.095745 136.992859,42.309464 137.037872,43.274055 
	C137.090942,45.021465 137.414047,46.138470 137.070679,46.985191 
	C136.601166,48.142975 135.624786,49.095203 134.865662,50.135544 
	C133.961487,49.076698 132.911057,48.104465 132.212112,46.924088 
	C131.837677,46.291740 132.068283,45.301132 132.025848,44.472195 
	C132.025848,44.472195 131.996948,44.498081 132.278778,44.372406 
	C133.035278,43.876560 133.509933,43.506386 133.984604,43.136215 
	C134.767944,42.804234 135.551300,42.472248 136.645752,42.011143 
z"/>
<path fill="#C0E4DB" opacity="1.000000" stroke="none" 
	d="
M38.022224,31.092945 
	C35.158852,30.653471 32.295479,30.213999 29.221073,29.431719 
	C34.559418,29.377657 40.119083,29.551708 45.649837,30.047989 
	C46.812660,30.152332 47.869247,31.440565 48.962128,32.580486 
	C47.540497,32.624588 46.131535,32.271481 44.009071,31.820751 
	C41.537788,31.513065 39.780006,31.303005 38.022224,31.092945 
z"/>
<path fill="#A7ABAB" opacity="1.000000" stroke="none" 
	d="
M87.880028,52.051643 
	C87.258583,49.600700 85.884270,47.008472 86.307404,44.753548 
	C86.548508,43.468727 89.724007,42.734547 91.760818,41.423096 
	C92.575188,41.229389 93.206871,41.365002 94.022598,41.982613 
	C94.206627,42.464611 94.143677,42.824039 93.831741,42.985977 
	C93.253448,43.527283 92.987099,43.906654 92.327667,44.191647 
	C87.292488,43.100853 87.921181,46.288624 87.991776,49.422859 
	C87.944572,50.550892 87.912300,51.301266 87.880028,52.051643 
z"/>
<path fill="#EFFDEC" opacity="1.000000" stroke="none" 
	d="
M151.060089,60.178501 
	C151.049805,60.007954 151.039520,59.837406 151.020050,59.410732 
	C156.720184,59.107391 162.429489,59.060173 168.569061,59.334282 
	C168.999359,59.655613 169.017807,60.153790 168.745148,60.254044 
	C167.902206,60.433086 167.331940,60.511871 166.333176,60.398472 
	C165.602631,60.142921 165.300598,60.079559 164.728027,59.775658 
	C161.052734,60.111134 157.647934,60.687157 153.936951,61.097752 
	C152.773865,60.681053 151.916977,60.429775 151.060089,60.178501 
z"/>
<path fill="#E1E2E2" opacity="1.000000" stroke="none" 
	d="
M99.190170,80.931229 
	C100.580414,80.324013 101.970657,79.716797 103.360893,79.109573 
	C103.908699,80.478889 104.456497,81.848198 105.007690,83.629730 
	C103.559143,83.716370 102.107208,83.390793 100.231384,82.699593 
	C99.601723,81.866394 99.395943,81.398804 99.190170,80.931229 
z"/>
<path fill="#E9EDF0" opacity="1.000000" stroke="none" 
	d="
M102.672981,41.080521 
	C102.671928,44.154213 102.338890,47.152664 101.746506,50.469273 
	C100.986099,50.540981 100.485039,50.294537 99.983978,50.048092 
	C100.312836,47.328983 100.641701,44.609875 100.982910,41.516201 
	C101.443840,41.096184 101.892418,41.050732 102.672981,41.080521 
z"/>
<path fill="#DFE0E0" opacity="1.000000" stroke="none" 
	d="
M146.017441,83.047157 
	C144.199432,83.329552 142.381409,83.611938 140.282074,83.431313 
	C139.991089,81.802155 139.981430,80.636017 139.910492,79.308426 
	C139.795425,78.906677 139.839813,78.686150 140.365036,78.387970 
	C141.790665,78.155365 142.833649,78.020187 143.908783,78.246078 
	C144.633118,80.087151 145.325287,81.567154 146.017441,83.047157 
z"/>
<path fill="#EBEBF0" opacity="1.000000" stroke="none" 
	d="
M149.942322,75.876846 
	C150.822128,77.477303 151.701950,79.077759 152.865753,80.871887 
	C151.386154,81.053040 149.622589,81.040512 147.238007,80.850151 
	C146.753555,79.477623 146.890106,78.282921 147.337158,76.980423 
	C148.412537,76.540695 149.177429,76.208778 149.942322,75.876846 
z"/>
<path fill="#A1A4A7" opacity="1.000000" stroke="none" 
	d="
M117.025116,43.619225 
	C113.254845,43.225067 111.488014,44.831276 111.739525,48.896610 
	C111.218575,48.754982 110.697632,48.613354 110.176682,48.471729 
	C110.455254,46.595718 110.733818,44.719711 110.988174,42.460178 
	C110.963959,42.076656 111.358871,41.905407 111.572418,41.932144 
	C113.544167,42.379852 115.302361,42.800823 117.025116,43.619225 
z"/>
<path fill="#EBEDED" opacity="1.000000" stroke="none" 
	d="
M95.959457,76.877472 
	C95.972580,77.087555 95.985710,77.297638 95.995789,78.145721 
	C96.311264,79.538139 96.629791,80.292564 96.888359,81.268097 
	C96.864731,81.992920 96.901070,82.496628 96.933464,83.204208 
	C96.929527,83.408066 96.944580,83.815590 96.944580,83.815590 
	C96.212448,83.858025 95.480324,83.900452 94.352036,83.567581 
	C93.368095,82.772446 92.780312,82.352600 92.191071,81.594704 
	C92.789436,80.180046 93.389275,79.103447 94.003799,77.733017 
	C94.029350,77.243355 94.040222,77.047523 94.366898,76.906380 
	C95.108284,76.933205 95.533867,76.905342 95.959457,76.877472 
M93.379189,80.618736 
	C93.379189,80.618736 93.467033,80.479515 93.467033,80.479515 
	C93.467033,80.479515 93.256294,80.500511 93.379189,80.618736 
z"/>
<path fill="#E9EDF0" opacity="1.000000" stroke="none" 
	d="
M107.348923,49.933701 
	C106.493713,47.480965 105.988083,44.961002 105.751862,42.216114 
	C106.187691,42.018997 106.354118,42.046806 106.763794,42.144569 
	C107.237518,44.765175 107.468002,47.315826 107.348923,49.933701 
z"/>
<path fill="#F3F5F5" opacity="1.000000" stroke="none" 
	d="
M139.982376,78.485390 
	C139.839813,78.686150 139.795425,78.906677 139.552170,79.627579 
	C139.473648,81.281715 139.692154,82.455254 139.910675,83.628784 
	C138.674530,83.734497 137.438385,83.840218 135.878204,83.403816 
	C135.733902,81.369987 135.913620,79.878281 136.477478,78.276306 
	C137.901855,78.272499 138.942123,78.378944 139.982376,78.485390 
z"/>
<path fill="#EFF2F1" opacity="1.000000" stroke="none" 
	d="
M87.409828,83.910774 
	C87.509117,82.374847 88.001549,80.898605 88.992874,79.303566 
	C89.931198,79.468758 90.370651,79.752754 90.857758,80.400925 
	C90.944618,81.498085 90.983810,82.231071 91.002510,83.178497 
	C90.982010,83.392929 90.972359,83.823647 90.972359,83.823647 
	C89.915894,83.872581 88.859436,83.921524 87.409828,83.910774 
z"/>
<path fill="#E5E7E6" opacity="1.000000" stroke="none" 
	d="
M134.995789,83.588089 
	C134.038971,83.273315 133.082153,82.958534 132.081116,81.980705 
	C132.041504,80.262230 132.046143,79.206795 132.274963,78.103653 
	C132.499146,78.055939 132.946762,78.154938 133.178986,78.445740 
	C133.939392,80.353729 134.467590,81.970909 134.995789,83.588089 
z"/>
<path fill="#B5B4BC" opacity="1.000000" stroke="none" 
	d="
M147.026642,77.088219 
	C146.890106,78.282921 146.753555,79.477623 146.858261,80.869972 
	C146.942459,81.708336 146.785400,82.349052 146.322876,83.018463 
	C145.325287,81.567154 144.633118,80.087151 143.927612,78.279060 
	C143.914261,77.950974 143.844406,77.980728 144.134369,77.878159 
	C144.653854,77.458412 144.883377,77.141228 145.435944,76.847664 
	C146.181534,76.943596 146.604095,77.015907 147.026642,77.088219 
z"/>
<path fill="#DFE0E0" opacity="1.000000" stroke="none" 
	d="
M110.047791,80.972038 
	C110.518974,80.588913 110.990158,80.205795 112.062302,79.334023 
	C111.629318,81.046707 111.355225,82.130928 111.048332,83.533081 
	C110.097855,83.819801 109.180176,83.788567 108.115906,83.438721 
	C107.984734,82.649940 108.000137,82.179771 108.357521,81.353569 
	C109.148926,80.989029 109.598358,80.980530 110.047791,80.972038 
z"/>
<path fill="#5B9996" opacity="1.000000" stroke="none" 
	d="
M17.230904,36.732056 
	C16.553009,36.980824 16.082512,36.976231 15.259794,36.948479 
	C16.715305,35.616417 18.523035,34.307518 20.680744,33.065979 
	C19.833250,34.248459 18.635775,35.363575 17.230904,36.732056 
z"/>
<path fill="#DBF9E6" opacity="1.000000" stroke="none" 
	d="
M169.017807,60.153790 
	C169.017807,60.153790 168.999359,59.655613 168.994995,59.406391 
	C171.535187,59.146255 174.079742,59.135342 176.835724,59.484272 
	C177.016144,60.379555 176.985153,60.914997 176.618347,61.630806 
	C173.860962,61.258713 171.439392,60.706249 169.017807,60.153790 
z"/>
<path fill="#A7AAA9" opacity="1.000000" stroke="none" 
	d="
M132.050766,78.151367 
	C132.046143,79.206795 132.041504,80.262230 131.984039,81.710419 
	C131.762222,82.062080 131.593216,82.020988 131.184677,81.581894 
	C130.604141,80.594597 130.263138,80.005287 129.922150,79.415985 
	C129.587265,79.902367 129.252365,80.388741 128.917465,80.875107 
	C128.618790,80.436348 128.320114,79.997589 128.156403,79.008652 
	C128.900833,77.922073 129.510300,77.385674 130.392563,76.964783 
	C131.127167,77.437325 131.588959,77.794342 132.050766,78.151367 
z"/>
<path fill="#A7ABAB" opacity="1.000000" stroke="none" 
	d="
M135.000443,83.537506 
	C134.467590,81.970909 133.939392,80.353729 133.572632,78.364983 
	C134.520493,78.124474 135.306915,78.255524 136.093338,78.386566 
	C135.913620,79.878281 135.733902,81.369987 135.279160,83.224815 
	C135.004135,83.587929 135.005096,83.486931 135.000443,83.537506 
z"/>
<path fill="#C1DDEC" opacity="1.000000" stroke="none" 
	d="
M4.954132,52.679222 
	C4.657924,54.110737 4.324799,55.212120 3.949844,56.663406 
	C4.020338,55.090343 4.132661,53.167374 4.598834,51.132980 
	C4.940861,51.464069 4.929039,51.906582 4.954132,52.679222 
z"/>
<path fill="#EFF2F1" opacity="1.000000" stroke="none" 
	d="
M84.334457,83.880814 
	C84.249947,82.776794 84.492348,81.752541 84.734749,80.728287 
	C85.011040,80.729317 85.287331,80.730339 85.563629,80.731369 
	C85.708237,81.551636 85.852844,82.371895 85.995705,83.524414 
	C85.549759,83.891296 85.105560,83.925941 84.334457,83.880814 
z"/>
<path fill="#EFF2F1" opacity="1.000000" stroke="none" 
	d="
M129.057556,81.126953 
	C129.252365,80.388741 129.587265,79.902367 129.922150,79.415985 
	C130.263138,80.005287 130.604141,80.594597 130.935989,81.503067 
	C130.926849,81.822243 130.532394,81.971031 130.325302,82.010284 
	C129.811356,81.825958 129.504517,81.602371 129.057556,81.126953 
z"/>
<path fill="#EEF0F2" opacity="1.000000" stroke="none" 
	d="
M94.143677,42.824039 
	C94.143677,42.824039 94.206627,42.464611 94.099701,42.316788 
	C94.443268,42.123112 94.893768,42.077263 95.674156,42.113770 
	C95.673828,43.077904 95.343597,43.959690 94.609482,44.572182 
	C94.184952,43.809944 94.164314,43.316990 94.143677,42.824039 
z"/>
<path fill="#A09FA0" opacity="1.000000" stroke="none" 
	d="
M139.892380,83.589676 
	C139.692154,82.455254 139.473648,81.281715 139.613449,79.789032 
	C139.981430,80.636017 139.991089,81.802155 139.948334,83.300140 
	C139.895920,83.631989 139.874084,83.550568 139.892380,83.589676 
z"/>
<path fill="#B5B7B6" opacity="1.000000" stroke="none" 
	d="
M97.283646,83.900879 
	C96.944580,83.815590 96.929527,83.408066 97.193192,83.054703 
	C97.627487,82.144432 97.798119,81.587517 98.041077,80.952187 
	C98.113403,80.873772 98.258308,80.717186 98.258308,80.717186 
	C98.258308,80.717186 98.731728,80.786804 98.960953,80.859009 
	C99.395943,81.398804 99.601723,81.866394 99.914017,82.569649 
	C99.221268,83.198936 98.421997,83.592552 97.283646,83.900879 
z"/>
<path fill="#4CA17C" opacity="1.000000" stroke="none" 
	d="
M57.885292,38.678825 
	C56.968449,38.535866 56.047649,38.058437 55.109612,37.234924 
	C56.022030,37.374008 56.951683,37.859180 57.885292,38.678825 
z"/>
<path fill="#D1D3D2" opacity="1.000000" stroke="none" 
	d="
M91.351936,83.895256 
	C90.972359,83.823647 90.982010,83.392929 91.261490,83.094559 
	C91.758156,82.508385 91.975342,82.220573 92.192528,81.932755 
	C92.780312,82.352600 93.368095,82.772446 93.993851,83.481453 
	C93.265045,83.836037 92.498283,83.901451 91.351936,83.895256 
z"/>
<path fill="#9A9C9B" opacity="1.000000" stroke="none" 
	d="
M150.205139,48.207954 
	C150.517899,47.755764 150.475418,47.857357 150.434982,47.820053 
	C152.666458,49.858265 152.013626,51.058346 148.801559,52.013512 
	C149.269974,50.573502 149.581161,49.616825 150.205139,48.207954 
z"/>
<path fill="#999E9D" opacity="1.000000" stroke="none" 
	d="
M133.925079,42.795166 
	C133.509933,43.506386 133.035278,43.876560 132.276031,44.391609 
	C131.891800,44.020683 131.792175,43.504883 131.797180,42.591347 
	C132.556381,42.280445 133.210968,42.367287 133.925079,42.795166 
z"/>
<path fill="#559E87" opacity="1.000000" stroke="none" 
	d="
M57.931557,83.273499 
	C57.919121,82.602821 58.191124,81.864235 58.825684,81.099953 
	C58.864159,81.784698 58.540077,82.495140 57.931557,83.273499 
z"/>
<path fill="#D5F5DB" opacity="1.000000" stroke="none" 
	d="
M62.725922,44.614891 
	C62.355404,44.689571 61.907116,44.507847 61.286392,44.154507 
	C61.113960,43.982891 61.171177,43.501198 61.093704,43.271545 
	C61.560204,43.480755 62.104183,43.919621 62.725922,44.614891 
z"/>
<path fill="#5B9996" opacity="1.000000" stroke="none" 
	d="
M14.635887,36.904144 
	C14.535821,37.243885 14.110304,37.598770 13.392510,37.985462 
	C13.503634,37.651276 13.907035,37.285286 14.635887,36.904144 
z"/>
<path fill="#ECEFEF" opacity="1.000000" stroke="none" 
	d="
M142.050308,51.934093 
	C142.218307,51.953167 142.386307,51.972237 142.807648,52.007484 
	C142.884598,52.326157 142.708221,52.628647 142.262604,52.878891 
	C141.993362,52.826649 141.986496,52.434166 141.993408,52.213394 
	C142.000320,51.992619 142.050308,51.934093 142.050308,51.934093 
z"/>
<path fill="#DDF8E1" opacity="1.000000" stroke="none" 
	d="
M72.000717,70.137085 
	C72.415482,70.005722 72.830681,70.174568 73.090141,70.712746 
	C72.623314,70.867149 72.312233,70.652214 72.000717,70.137085 
z"/>
<path fill="#75A980" opacity="1.000000" stroke="none" 
	d="
M168.745148,60.254044 
	C171.439392,60.706249 173.860962,61.258713 176.582550,62.031441 
	C176.882568,62.251705 176.902847,62.637444 177.012634,63.076569 
	C177.416885,63.685452 177.711334,63.855206 177.958496,64.339371 
	C177.279785,65.105286 176.648376,65.556793 175.639725,65.999405 
	C174.508347,65.993706 173.754227,65.996895 172.625061,65.999794 
	C171.501633,66.000832 170.753204,66.002159 169.696625,65.869232 
	C167.927963,65.812271 166.467438,65.889587 165.006516,65.617188 
	C165.003677,64.568039 165.001251,63.868614 165.291473,63.008316 
	C165.976639,62.095188 166.369156,61.342922 166.761673,60.590660 
	C167.331940,60.511871 167.902206,60.433086 168.745148,60.254044 
z"/>
<path fill="#70AB7C" opacity="1.000000" stroke="none" 
	d="
M176.016968,66.008286 
	C176.648376,65.556793 177.279785,65.105286 178.019653,64.108597 
	C178.128143,63.563408 178.258850,63.104309 178.258850,63.104309 
	C178.552048,63.065891 178.781174,62.923992 179.254868,62.335701 
	C179.764832,61.679531 179.966125,61.366272 180.167419,61.053009 
	C182.856400,61.045773 185.545364,61.038536 188.620575,61.075874 
	C189.012466,61.790306 189.018112,62.460171 189.044312,63.463284 
	C182.706940,63.420780 182.752747,63.425011 182.147934,69.972237 
	C182.059662,70.927734 181.293076,71.820580 180.441071,72.703339 
	C178.870285,70.923088 177.698776,69.181931 176.266937,66.973038 
	C176.006592,66.505318 176.016968,66.008286 176.016968,66.008286 
z"/>
<path fill="#DBF9E6" opacity="1.000000" stroke="none" 
	d="
M177.955719,63.069042 
	C178.258850,63.104309 178.128143,63.563408 178.066971,63.794186 
	C177.711334,63.855206 177.416885,63.685452 177.082886,63.256477 
	C177.246445,63.009434 177.449524,63.021603 177.955719,63.069042 
z"/>
<path fill="#DBF9E6" opacity="1.000000" stroke="none" 
	d="
M179.902756,61.173157 
	C179.966125,61.366272 179.764832,61.679531 179.323425,62.140167 
	C179.268219,61.956131 179.453156,61.624718 179.902756,61.173157 
z"/>
<path fill="#5D9E90" opacity="1.000000" stroke="none" 
	d="
M48.974823,46.022072 
	C48.980709,50.060749 48.986599,54.099426 48.675205,58.480988 
	C44.983627,58.951782 44.949959,59.001137 46.095707,62.140049 
	C48.560745,68.893311 45.535751,73.485817 38.344025,73.812622 
	C35.225834,73.954323 32.100803,73.945435 28.879173,73.659279 
	C32.770725,69.322685 36.761986,65.331764 41.017834,61.179314 
	C42.624763,58.723347 43.967110,56.428898 45.580589,53.871384 
	C44.732952,50.847374 43.614185,48.086433 42.902084,45.263332 
	C45.197445,45.474804 47.086132,45.748436 48.974823,46.022072 
z"/>
<path fill="#D0F1EA" opacity="1.000000" stroke="none" 
	d="
M28.978880,74.004944 
	C32.100803,73.945435 35.225834,73.954323 38.344025,73.812622 
	C45.535751,73.485817 48.560745,68.893311 46.095707,62.140049 
	C44.949959,59.001137 44.983627,58.951782 48.680382,58.903122 
	C49.272583,59.141762 49.504780,59.344208 49.763771,60.091785 
	C50.085236,61.115448 50.342365,61.637032 50.599495,62.158619 
	C50.791805,62.857029 50.984116,63.555435 51.183304,64.990707 
	C50.475063,68.160583 49.759941,70.593590 48.948669,73.145294 
	C48.852512,73.264000 48.813812,73.567276 48.505531,73.697571 
	C46.771725,74.838264 45.346203,75.848656 43.682629,76.919235 
	C43.169289,77.186447 42.998898,77.459038 42.614471,77.858658 
	C41.871578,78.007042 41.447613,78.093964 40.650761,78.134392 
	C39.531364,78.017059 38.784855,77.946220 37.620262,77.804329 
	C35.796692,77.757454 34.391209,77.781631 32.587593,77.742691 
	C30.399935,77.389755 27.553411,78.726059 28.017979,74.993713 
	C28.017830,75.019241 27.966845,75.021851 28.265816,74.997025 
	C28.711012,74.638145 28.857239,74.304108 29.006508,73.985756 
	C29.009552,74.001450 28.978880,74.004951 28.978880,74.004944 
z"/>
<path fill="#469D86" opacity="1.000000" stroke="none" 
	d="
M48.984116,45.643772 
	C47.086132,45.748436 45.197445,45.474804 42.633888,45.219738 
	C41.295765,44.920620 40.632515,44.602936 39.979668,43.876854 
	C39.119305,41.379303 43.101158,37.805759 38.013405,37.006565 
	C38.006638,35.934624 37.999866,34.862682 37.987190,33.388290 
	C37.986996,32.565056 37.992714,32.144276 38.010326,31.408220 
	C39.780006,31.303005 41.537788,31.513065 43.646832,31.895515 
	C43.202114,36.557259 45.631424,39.763100 48.644508,42.935501 
	C48.991455,43.752960 48.992432,44.509216 48.984116,45.643772 
z"/>
<path fill="#5AA57B" opacity="1.000000" stroke="none" 
	d="
M49.044823,73.026596 
	C49.759941,70.593590 50.475063,68.160583 51.287991,65.337753 
	C52.139282,65.139099 52.892765,65.330269 53.820778,65.761887 
	C54.218914,69.205330 55.401806,72.674294 51.046379,74.728310 
	C50.030663,74.144844 49.537743,73.585716 49.044823,73.026596 
z"/>
<path fill="#5AA57B" opacity="1.000000" stroke="none" 
	d="
M50.875557,62.005985 
	C50.342365,61.637032 50.085236,61.115448 49.875271,60.295204 
	C50.332165,60.615482 50.741890,61.234417 50.875557,62.005985 
z"/>
<path fill="#378CAD" opacity="1.000000" stroke="none" 
	d="
M7.053828,67.394829 
	C10.701360,66.452614 11.160664,63.822868 11.004971,60.396454 
	C12.005916,61.937481 12.995207,63.882473 14.005846,65.816307 
	C15.081997,67.875504 16.178350,69.924149 17.690178,72.344452 
	C18.447330,73.850479 18.780190,74.989449 19.108978,76.298431 
	C19.104908,76.468452 19.124548,76.808022 19.124546,76.808022 
	C19.522793,78.981064 19.921040,81.154114 20.517427,84.408325 
	C18.014456,83.545280 15.892134,82.813492 13.408097,82.018509 
	C12.644204,80.595009 12.650579,78.816696 11.764916,77.951035 
	C8.853729,75.105568 7.770857,71.579712 7.053828,67.394829 
z"/>
<path fill="#508C98" opacity="1.000000" stroke="none" 
	d="
M19.113049,76.128418 
	C18.780190,74.989449 18.447330,73.850479 18.080519,72.356720 
	C18.074991,68.206741 18.005775,64.407661 18.156919,60.617355 
	C18.339739,56.032753 18.709084,51.455585 18.999371,46.435715 
	C19.567980,45.434929 20.134922,44.873634 20.938595,44.669380 
	C21.124048,53.965885 21.156145,62.907394 20.937138,71.842743 
	C20.901779,73.285339 19.749195,74.700546 19.113049,76.128418 
z"/>
<path fill="#D6F5F3" opacity="1.000000" stroke="none" 
	d="
M19.108978,76.298431 
	C19.749195,74.700546 20.901779,73.285339 20.937138,71.842743 
	C21.156145,62.907394 21.124048,53.965885 21.222076,44.567833 
	C21.268826,44.109241 21.657663,44.068333 22.297119,44.073257 
	C28.614138,44.147205 34.291698,44.216228 39.969261,44.285252 
	C40.632515,44.602936 41.295765,44.920620 42.227219,45.281898 
	C43.614185,48.086433 44.732952,50.847374 45.168762,53.831398 
	C43.936508,54.020798 43.387218,53.987110 42.770100,53.596741 
	C42.102612,48.550877 38.332859,48.722122 34.554363,48.158325 
	C31.964653,48.056786 29.754202,47.686787 27.713661,48.118984 
	C26.757206,48.321564 26.128477,50.071434 25.304733,51.495220 
	C25.288465,55.883358 25.318684,59.896347 25.243696,64.309647 
	C24.996410,69.516083 24.996410,69.516083 27.572750,68.967804 
	C29.603514,67.101730 31.311632,65.290146 33.304321,63.307045 
	C34.932789,62.032990 36.276680,60.930454 38.016529,60.000237 
	C39.192741,60.561977 39.972996,60.951405 40.753246,61.340832 
	C36.761986,65.331764 32.770725,69.322685 28.879173,73.659286 
	C28.978880,74.004951 29.009552,74.001450 28.674301,73.932434 
	C28.214979,74.249565 28.090912,74.635712 27.966843,75.021851 
	C27.966845,75.021851 28.017830,75.019241 27.695929,74.886688 
	C26.572016,75.474129 25.770004,76.194122 24.967993,76.914116 
	C23.243105,76.901161 21.518215,76.888206 19.458937,76.841637 
	C19.124548,76.808022 19.104908,76.468452 19.108978,76.298431 
z"/>
<path fill="#3BA18D" opacity="1.000000" stroke="none" 
	d="
M42.933411,77.797195 
	C42.998898,77.459038 43.169289,77.186447 43.855114,77.180710 
	C44.838379,77.585999 45.411110,77.789993 45.808464,78.253960 
	C45.088875,79.346268 44.544659,80.178612 44.000443,81.010956 
	C40.501816,82.157265 39.946274,82.949234 41.773285,85.039154 
	C44.080433,87.678291 42.349438,88.510429 40.236012,88.874710 
	C38.176403,89.229729 36.014809,88.993080 33.451206,89.021927 
	C31.689390,84.149971 37.953663,85.600319 38.687469,81.803566 
	C37.988354,81.225685 37.048698,80.448975 36.361794,79.305954 
	C37.089146,78.584900 37.563747,78.230133 38.038349,77.875374 
	C38.784855,77.946220 39.531364,78.017059 40.832874,78.322372 
	C41.903053,78.303627 42.418232,78.050415 42.933411,77.797195 
z"/>
<path fill="#5D9E90" opacity="1.000000" stroke="none" 
	d="
M25.057652,77.301453 
	C25.770004,76.194122 26.572016,75.474129 27.696077,74.861160 
	C27.553411,78.726059 30.399935,77.389755 32.588272,78.028610 
	C32.983517,78.567596 32.979961,78.757553 32.976406,78.947502 
	C30.366709,78.527931 27.757011,78.108353 25.057652,77.301453 
z"/>
<path fill="#559E87" opacity="1.000000" stroke="none" 
	d="
M33.353958,78.964005 
	C32.979961,78.757553 32.983517,78.567596 32.986397,78.091721 
	C34.391209,77.781631 35.796692,77.757454 37.620262,77.804329 
	C37.563747,78.230133 37.089146,78.584900 36.305290,78.969376 
	C35.241192,78.992889 34.486351,78.986694 33.353958,78.964005 
z"/>
<path fill="#000000" opacity="1.000000" stroke="none" 
	d="
M87.930023,52.389130 
	C87.912300,51.301266 87.944572,50.550892 88.290436,49.362675 
	C89.365463,48.298584 90.126900,47.672333 90.937332,47.405281 
	C91.985764,53.209560 93.412712,54.311207 97.947212,53.138512 
	C98.772957,53.401787 99.598709,53.665062 101.042267,53.968452 
	C102.107559,53.958897 102.555046,53.909225 103.002525,53.859550 
	C103.447533,53.907856 103.892548,53.956161 104.999069,54.007156 
	C106.107918,53.958351 106.555260,53.906857 107.002602,53.855366 
	C107.319763,54.055843 107.636932,54.256317 108.053650,55.073608 
	C109.445213,55.827621 110.737221,55.964817 112.029221,56.102013 
	C112.944283,55.332478 113.859344,54.562939 114.890457,53.473083 
	C119.066818,53.226562 123.127884,53.274006 127.187027,53.389042 
	C128.533600,53.427204 129.875244,53.639149 131.931946,53.986012 
	C127.976730,54.708817 128.268509,58.960522 127.058685,62.768223 
	C124.793480,59.034279 125.779442,52.108997 118.797409,55.941216 
	C118.819321,55.980110 118.900063,55.941044 118.545273,56.106728 
	C118.452545,57.995811 118.714622,59.719204 118.903839,61.574398 
	C118.830986,61.706196 119.007439,61.950287 118.999100,62.358852 
	C119.643814,64.889595 120.296867,67.011780 120.961746,69.489334 
	C121.365517,70.899200 121.757462,71.953705 122.123123,73.306274 
	C122.708366,74.357872 123.319901,75.111412 123.931435,75.864952 
	C123.931435,75.864952 123.460686,76.002014 122.859726,75.993286 
	C121.155891,76.276207 120.053017,76.567863 118.950142,76.859512 
	C118.313911,76.966698 117.677681,77.073891 116.928268,77.051422 
	C114.057945,79.604317 112.208153,75.377159 109.356064,75.993973 
	C108.989388,75.997498 109.054321,76.073166 109.138519,75.696266 
	C110.789612,74.331192 113.601952,73.448746 113.696449,72.335579 
	C114.016014,68.571053 113.372101,64.724731 113.052696,60.505905 
	C111.565842,59.392185 110.132416,58.115341 108.677650,58.090546 
	C105.669220,58.039272 102.654373,58.872803 99.633080,58.941238 
	C95.723801,59.029785 91.805641,58.726517 87.883698,58.610695 
	C87.876091,58.629436 87.897072,58.605717 87.897072,58.605717 
	C86.237358,57.396229 84.577644,56.186745 82.525879,54.962955 
	C82.691689,50.548588 86.379692,54.383934 87.930023,52.389130 
z"/>
<path fill="#E0F6E6" opacity="1.000000" stroke="none" 
	d="
M118.775505,55.902325 
	C125.779442,52.108997 124.793480,59.034279 127.058685,62.768223 
	C128.268509,58.960522 127.976730,54.708817 132.323441,54.027935 
	C132.021301,53.382229 132.040482,52.908974 132.485168,52.156143 
	C134.259506,51.875534 135.608322,51.874504 136.957138,51.873474 
	C137.225021,52.397156 137.492920,52.920837 137.561157,53.764069 
	C136.233658,55.080807 135.105850,56.078007 133.670532,57.021503 
	C132.317627,57.854382 130.850433,58.540871 130.315063,59.669411 
	C129.218704,61.980499 128.622543,64.528877 127.477356,66.902260 
	C126.369431,64.887222 125.772667,62.858864 124.791176,61.037872 
	C123.859306,59.308929 122.524803,57.796997 121.024628,56.341629 
	C120.046440,56.296520 119.410973,56.099422 118.775505,55.902325 
z"/>
<path fill="#999E9D" opacity="1.000000" stroke="none" 
	d="
M137.178909,51.574120 
	C135.608322,51.874504 134.259506,51.875534 132.511475,51.801865 
	C130.597168,49.494141 128.533997,47.328293 131.630951,44.525295 
	C132.068283,45.301132 131.837677,46.291740 132.212112,46.924088 
	C132.911057,48.104465 133.961487,49.076698 134.865662,50.135544 
	C135.624786,49.095203 136.601166,48.142975 137.070679,46.985191 
	C137.414047,46.138470 137.090942,45.021465 137.069977,43.594158 
	C137.075043,43.163383 137.452942,43.105705 137.642365,43.084667 
	C137.688080,45.800674 137.544388,48.537720 137.178909,51.574120 
z"/>
<path fill="#A1A4A7" opacity="1.000000" stroke="none" 
	d="
M117.363945,50.026100 
	C116.956841,48.292725 116.938042,46.579037 116.951355,44.437935 
	C120.187714,45.646763 119.450958,47.785011 117.363945,50.026100 
z"/>
<path fill="#A1A4A7" opacity="1.000000" stroke="none" 
	d="
M115.125549,50.051880 
	C115.542450,50.008350 115.959343,49.964817 116.689667,49.948441 
	C116.562454,50.616852 116.121819,51.258102 115.342117,51.945534 
	C114.959938,51.821960 114.916832,51.652206 114.876350,51.004402 
	C114.961174,50.368191 115.043365,50.210033 115.125549,50.051880 
z"/>
<path fill="#D6F8DC" opacity="1.000000" stroke="none" 
	d="
M85.100815,59.414497 
	C85.766922,58.928543 86.378838,58.858509 87.443909,58.697098 
	C87.897072,58.605717 87.876091,58.629436 87.678749,58.914658 
	C88.023232,60.144966 88.565056,61.090057 88.925201,62.390915 
	C89.156525,66.215424 89.569534,69.684166 89.636826,73.076416 
	C86.573997,73.970093 83.856888,74.940254 81.139778,75.910416 
	C80.201218,75.209129 79.262665,74.507843 78.162796,73.535385 
	C80.099823,72.896065 82.772987,73.177605 84.132675,71.974594 
	C85.456924,70.802948 85.785294,68.133064 85.909386,66.082184 
	C86.033958,64.023201 85.366798,61.916313 85.100815,59.414497 
z"/>
<path fill="#D6F8DC" opacity="1.000000" stroke="none" 
	d="
M75.962814,72.742325 
	C75.732048,72.918144 75.461540,72.766663 75.104309,72.338577 
	C75.272484,72.263420 75.574310,72.381096 75.962814,72.742325 
z"/>
<path fill="#3DA775" opacity="1.000000" stroke="none" 
	d="
M44.369080,81.022530 
	C44.544659,80.178612 45.088875,79.346268 46.209526,78.236984 
	C47.461910,76.495789 48.137863,75.031532 48.813812,73.567276 
	C48.813812,73.567276 48.852512,73.264000 48.948669,73.145294 
	C49.537743,73.585716 50.030663,74.144844 50.761860,74.858704 
	C51.997917,77.418892 52.995697,79.824341 53.986313,82.610916 
	C50.898670,82.339386 47.818192,81.686745 44.369080,81.022530 
z"/>
<path fill="#4C988F" opacity="1.000000" stroke="none" 
	d="
M39.979668,43.876854 
	C34.291698,44.216228 28.614138,44.147205 22.475863,43.994080 
	C22.791832,43.601543 23.568514,43.293102 24.677065,42.973747 
	C28.099562,42.620827 31.312075,42.673771 34.230320,41.773186 
	C35.729767,41.310452 36.704296,39.146778 37.964722,37.379162 
	C43.101158,37.805759 39.119305,41.379303 39.979668,43.876854 
z"/>
<path fill="#F3F5F5" opacity="1.000000" stroke="none" 
	d="
M81.566078,44.999886 
	C82.425697,48.197472 82.147835,50.773453 77.409233,50.035492 
	C76.440498,49.303146 75.891502,48.630802 75.321411,47.932621 
	C76.675407,47.069599 77.774689,46.368927 78.936981,45.334129 
	C79.000000,45.000000 79.003372,44.996319 79.003372,44.996315 
	C79.735664,44.997421 80.467957,44.998528 81.566078,44.999886 
z"/>
<path fill="#F3F5F5" opacity="1.000000" stroke="none" 
	d="
M78.998169,45.001823 
	C77.840401,44.838551 76.684471,44.673447 75.528534,44.508343 
	C75.634308,44.064217 75.740074,43.620087 75.845848,43.175961 
	C76.853813,43.557144 77.861778,43.938328 78.936554,44.657913 
	C79.003372,44.996319 79.000000,45.000000 78.998169,45.001823 
z"/>
<path fill="#CCEED3" opacity="1.000000" stroke="none" 
	d="
M133.978027,57.075203 
	C135.105850,56.078007 136.233658,55.080807 137.687790,54.030346 
	C138.014099,53.977081 138.505508,54.010742 138.751068,54.030045 
	C140.556610,56.629765 138.532486,57.958679 136.786713,60.145416 
	C136.349228,64.846947 136.220901,68.895813 136.092560,72.944672 
	C135.884567,72.962479 135.676559,72.980286 134.836029,72.886841 
	C131.345718,68.425667 132.264084,74.336990 130.558167,73.980392 
	C129.478378,73.662567 128.722656,73.362167 128.126114,72.734955 
	C130.182861,67.297165 132.080444,62.186184 133.978027,57.075203 
z"/>
<path fill="#ECEFEF" opacity="1.000000" stroke="none" 
	d="
M141.971680,52.018326 
	C141.837753,51.883938 141.732468,51.723846 141.627167,51.563759 
	C141.720901,51.602665 141.814636,51.641571 141.979340,51.807285 
	C142.050308,51.934093 142.000320,51.992619 141.971680,52.018326 
z"/>
<path fill="#6CAD7A" opacity="1.000000" stroke="none" 
	d="
M164.998825,63.169186 
	C165.001251,63.868614 165.003677,64.568039 165.003296,65.864182 
	C165.000473,66.460884 164.999252,66.954102 164.687683,66.987083 
	C163.589752,67.629547 162.803375,68.239029 162.017014,68.848511 
	C161.388290,69.618500 160.759567,70.388496 160.092621,71.875694 
	C160.902557,73.977142 161.750732,75.361382 162.598907,76.745621 
	C162.598907,76.745621 162.469055,76.877197 162.106110,77.016525 
	C161.488998,77.462006 161.234848,77.768150 160.980682,78.074295 
	C159.514542,78.151711 158.048386,78.229118 156.402039,77.889542 
	C156.501328,75.204285 156.501328,75.204285 153.042648,75.991005 
	C153.058334,74.933289 153.074020,73.875572 153.103012,72.043732 
	C153.491928,67.934128 153.867538,64.598648 154.243134,61.263176 
	C157.647934,60.687157 161.052734,60.111134 164.682297,60.067017 
	C164.937653,61.455681 164.968231,62.312431 164.998825,63.169186 
M160.309677,65.498329 
	C159.975723,66.033401 159.641769,66.568481 159.307816,67.103561 
	C159.578262,67.235130 159.848709,67.366699 160.119156,67.498276 
	C160.322037,66.974113 160.524918,66.449944 160.309677,65.498329 
M162.427002,64.484207 
	C162.427002,64.484207 162.524551,64.428490 162.427002,64.484207 
z"/>
<path fill="#609F70" opacity="1.000000" stroke="none" 
	d="
M143.000824,61.011086 
	C145.099487,61.209576 147.198151,61.408066 149.799774,62.186523 
	C150.424164,65.777107 150.545593,68.787720 150.667023,71.798332 
	C147.029785,73.434982 143.413315,74.915176 140.301483,69.902000 
	C140.649261,68.221214 141.279724,67.099068 141.910202,65.976929 
	C142.755554,65.966118 143.600891,65.955307 145.046173,65.949142 
	C146.612991,65.425041 147.579865,64.896286 148.575745,64.351654 
	C146.425461,63.063171 144.713135,62.037125 143.000824,61.011086 
z"/>
<path fill="#000000" opacity="1.000000" stroke="none" 
	d="
M130.882248,73.997826 
	C132.264084,74.336990 131.345718,68.425667 134.523575,72.907639 
	C137.473221,73.698982 140.073364,74.550949 142.741394,74.958595 
	C145.010162,75.305229 147.357178,75.139717 149.805939,75.538818 
	C149.177429,76.208778 148.412537,76.540695 147.337143,76.980423 
	C146.604095,77.015907 146.181534,76.943596 145.287292,76.597305 
	C144.491852,76.875793 144.168137,77.428261 143.844406,77.980728 
	C143.844406,77.980728 143.914261,77.950974 143.895447,77.917992 
	C142.833649,78.020187 141.790665,78.155365 140.365036,78.387970 
	C138.942123,78.378944 137.901855,78.272499 136.477478,78.276306 
	C135.306915,78.255524 134.520493,78.124474 133.340424,78.074181 
	C132.946762,78.154938 132.499146,78.055939 132.274963,78.103653 
	C131.588959,77.794342 131.127167,77.437325 130.346420,76.650452 
	C130.312408,75.479668 130.597336,74.738747 130.882248,73.997826 
z"/>
<path fill="#74A682" opacity="1.000000" stroke="none" 
	d="
M136.448303,72.956039 
	C136.220901,68.895813 136.349228,64.846947 136.750519,60.490990 
	C137.645920,61.860153 138.268372,63.536415 138.877777,66.004486 
	C138.918091,67.867294 138.971451,68.938286 139.024811,70.009277 
	C138.284546,70.995323 137.544281,71.981361 136.448303,72.956039 
z"/>
<path fill="#BCF1CB" opacity="1.000000" stroke="none" 
	d="
M151.051468,71.853287 
	C150.545593,68.787720 150.424164,65.777107 150.139893,62.390755 
	C150.313675,61.587505 150.650314,61.159988 151.023529,60.455490 
	C151.916977,60.429775 152.773865,60.681053 153.936951,61.097755 
	C153.867538,64.598648 153.491928,67.934128 153.049622,71.646645 
	C152.467255,71.985207 151.951584,71.946716 151.051468,71.853287 
z"/>
<path fill="#72A97B" opacity="1.000000" stroke="none" 
	d="
M162.943329,76.741028 
	C161.750732,75.361382 160.902557,73.977142 160.072235,72.184982 
	C162.408859,72.622353 166.954727,72.031677 162.943329,76.741028 
z"/>
<path fill="#72A97B" opacity="1.000000" stroke="none" 
	d="
M153.068512,76.338806 
	C156.501328,75.204285 156.501328,75.204285 156.103745,77.762192 
	C155.021896,77.596748 154.058121,77.141670 153.068512,76.338806 
z"/>
<path fill="#D2F5D4" opacity="1.000000" stroke="none" 
	d="
M139.268341,70.006691 
	C138.971451,68.938286 138.918091,67.867294 138.919983,66.397064 
	C139.709320,65.993980 140.443420,65.990135 141.543854,65.981606 
	C141.279724,67.099068 140.649261,68.221214 140.008881,69.672653 
	C139.998962,70.001945 139.511871,70.004097 139.268341,70.006691 
z"/>
<path fill="#7DB28A" opacity="1.000000" stroke="none" 
	d="
M162.337921,68.871513 
	C162.803375,68.239029 163.589752,67.629547 164.730286,67.199196 
	C165.084442,67.378326 165.211761,67.790787 165.211761,67.790787 
	C165.211761,67.790787 165.116776,67.884499 165.069351,67.931351 
	C164.234222,68.283638 163.446518,68.589081 162.337921,68.871513 
z"/>
<path fill="#72A97B" opacity="1.000000" stroke="none" 
	d="
M161.317535,78.021065 
	C161.234848,77.768150 161.488998,77.462006 162.013687,77.015198 
	C162.074280,77.238968 161.864334,77.603401 161.317535,78.021065 
z"/>
<path fill="#000000" opacity="1.000000" stroke="none" 
	d="
M81.359436,75.947800 
	C83.856888,74.940254 86.573997,73.970093 89.648361,73.030975 
	C90.005615,73.062012 89.918190,73.027290 90.017487,73.262283 
	C90.429955,73.333122 90.743111,73.168976 91.420990,73.143669 
	C93.557434,73.458145 95.329163,73.633766 97.473053,73.857712 
	C100.195801,73.964294 102.546387,74.022537 105.040771,74.404083 
	C106.474495,75.175980 107.764412,75.624573 109.054321,76.073166 
	C109.054321,76.073166 108.989388,75.997498 108.955719,75.960724 
	C108.804939,76.266548 108.687828,76.609154 108.328751,77.244614 
	C108.086784,77.537476 108.042114,77.708107 108.042114,77.708107 
	C104.143074,77.207428 100.244026,76.706749 96.152222,76.541779 
	C95.533867,76.905342 95.108284,76.933205 94.203583,76.583237 
	C92.151550,76.516136 90.578613,76.826866 89.005684,77.137596 
	C88.237495,77.028450 87.469315,76.919312 86.263382,76.551178 
	C84.885933,76.245125 83.946236,76.198051 83.006538,76.150986 
	C82.837700,76.110016 82.668861,76.069046 82.246613,76.088959 
	C81.993202,76.149857 81.579102,75.985176 81.359436,75.947800 
z"/>
<path fill="#E7E9E9" opacity="1.000000" stroke="none" 
	d="
M73.957474,84.060349 
	C74.179718,83.580292 74.401581,83.044044 74.697342,82.552223 
	C74.729698,82.498413 75.187065,82.700180 75.447311,82.783401 
	C75.123474,83.179657 74.799629,83.575905 74.185204,84.018127 
	C73.894623,84.064102 73.978661,84.017128 73.957474,84.060349 
z"/>
<path fill="#EDEFF1" opacity="1.000000" stroke="none" 
	d="
M112.109451,55.831688 
	C110.737221,55.964817 109.445213,55.827621 108.153137,55.343369 
	C109.498604,55.184658 110.844147,55.373009 112.109451,55.831688 
z"/>
<path fill="#EEF0F2" opacity="1.000000" stroke="none" 
	d="
M107.001114,53.469856 
	C106.555260,53.906857 106.107918,53.958351 105.329025,53.935425 
	C105.466759,52.676693 105.936050,51.492378 106.702667,50.154106 
	C106.999878,51.028217 106.999748,52.056282 107.001114,53.469856 
z"/>
<path fill="#EDEFF1" opacity="1.000000" stroke="none" 
	d="
M114.882080,50.044388 
	C115.043365,50.210033 114.961174,50.368191 114.762177,50.767792 
	C114.357803,50.763145 114.070229,50.517052 113.782646,50.270958 
	C114.067970,50.192936 114.353294,50.114914 114.882080,50.044388 
z"/>
<path fill="#E8F4EE" opacity="1.000000" stroke="none" 
	d="
M130.558167,73.980392 
	C130.597336,74.738747 130.312408,75.479668 130.073624,76.534927 
	C129.510300,77.385674 128.900833,77.922073 128.112595,78.722656 
	C126.718086,78.132088 125.502342,77.277336 124.109016,76.143768 
	C123.319901,75.111412 122.708366,74.357872 122.439804,73.303406 
	C123.205070,72.996056 123.627380,72.989639 124.440781,73.032173 
	C125.876892,73.074669 126.921921,73.068214 127.966942,73.061768 
	C128.722656,73.362167 129.478378,73.662567 130.558167,73.980392 
z"/>
<path fill="#E8F4EE" opacity="1.000000" stroke="none" 
	d="
M118.983986,77.144119 
	C120.053017,76.567863 121.155891,76.276207 122.625641,76.066093 
	C122.915672,80.446854 120.811584,78.456367 118.983986,77.144119 
z"/>
<path fill="#62AD74" opacity="1.000000" stroke="none" 
	d="
M165.480774,67.894867 
	C165.211761,67.790787 165.084442,67.378326 165.041840,67.166214 
	C164.999252,66.954102 165.000473,66.460884 165.003693,66.213898 
	C166.467438,65.889587 167.927963,65.812271 169.694580,66.117615 
	C170.000671,66.500275 170.000793,66.998787 170.000793,66.998787 
	C169.003418,69.115700 167.727493,70.048653 165.480774,67.894867 
z"/>
<path fill="#62AD74" opacity="1.000000" stroke="none" 
	d="
M175.639725,65.999405 
	C176.016968,66.008286 176.006592,66.505318 176.006561,66.753906 
	C175.128433,67.165359 174.250351,67.328224 173.186523,66.995979 
	C173.000565,66.333939 173.000336,66.167007 173.000092,66.000076 
	C173.754227,65.996895 174.508347,65.993706 175.639725,65.999405 
z"/>
<path fill="#43975D" opacity="1.000000" stroke="none" 
	d="
M172.625061,65.999786 
	C173.000336,66.167007 173.000565,66.333939 173.000183,66.752075 
	C172.249802,67.002579 171.500000,67.001877 170.375488,66.999977 
	C170.000793,66.998787 170.000671,66.500275 170.002731,66.251884 
	C170.753204,66.002159 171.501633,66.000832 172.625061,65.999786 
z"/>
<path fill="#D2F5D4" opacity="1.000000" stroke="none" 
	d="
M142.813354,60.819031 
	C144.713135,62.037125 146.425461,63.063171 148.575745,64.351654 
	C147.579865,64.896286 146.612991,65.425041 145.304077,65.899704 
	C144.097961,65.095078 142.937607,64.493011 142.463562,63.547020 
	C142.084564,62.790695 142.540512,61.615990 142.813354,60.819031 
z"/>
<path fill="#EEF0F2" opacity="1.000000" stroke="none" 
	d="
M97.915329,52.798195 
	C93.412712,54.311207 91.985764,53.209560 91.246979,47.392563 
	C91.920662,47.011719 92.333679,47.002789 92.829041,47.302711 
	C93.264732,48.070393 93.618080,48.529224 93.971428,48.988052 
	C95.275429,50.144661 96.579437,51.301270 97.915329,52.798195 
z"/>
<path fill="#EEF0F2" opacity="1.000000" stroke="none" 
	d="
M102.997787,53.536491 
	C102.555046,53.909225 102.107559,53.958897 101.328728,53.933449 
	C100.686119,52.806480 100.374863,51.754635 100.023788,50.375443 
	C100.485039,50.294537 100.986099,50.540981 101.746414,50.894325 
	C102.334793,51.738625 102.663925,52.476028 102.997787,53.536491 
z"/>
<path fill="#838489" opacity="1.000000" stroke="none" 
	d="
M94.046036,48.592545 
	C93.618080,48.529224 93.264732,48.070393 92.882156,46.965221 
	C92.808868,45.641262 92.764809,44.963646 92.720757,44.286026 
	C92.987099,43.906654 93.253448,43.527283 93.831741,42.985977 
	C94.164314,43.316990 94.184952,43.809944 94.320038,44.653931 
	C94.329872,46.068989 94.225258,47.133011 94.046036,48.592545 
z"/>
<path fill="#469D86" opacity="1.000000" stroke="none" 
	d="
M35.471085,31.455156 
	C35.522541,31.426012 35.419628,31.484301 35.471085,31.455156 
z"/>
<path fill="#EFF2F1" opacity="1.000000" stroke="none" 
	d="
M83.000122,76.480881 
	C83.946236,76.198051 84.885933,76.245125 85.974487,76.621948 
	C85.066681,78.102036 84.010017,79.252365 82.286652,81.128502 
	C82.623077,79.074074 82.808395,77.942429 83.000122,76.480881 
z"/>
<path fill="#EFF2F1" opacity="1.000000" stroke="none" 
	d="
M89.001541,77.359680 
	C90.578613,76.826866 92.151550,76.516136 93.887787,76.528549 
	C94.040222,77.047523 94.029350,77.243355 93.648590,77.730804 
	C92.570274,78.044701 91.861862,78.066971 90.795570,78.062225 
	C89.959328,78.032135 89.480965,78.029053 89.002602,78.025963 
	C89.002602,78.025963 88.997398,77.581757 89.001541,77.359680 
z"/>
<path fill="#E1E2E2" opacity="1.000000" stroke="none" 
	d="
M89.001968,78.267548 
	C89.480965,78.029053 89.959328,78.032135 90.745316,78.388046 
	C90.971992,79.172829 90.891045,79.604790 90.810104,80.036743 
	C90.370651,79.752754 89.931198,79.468758 89.248474,79.088524 
	C89.005203,78.992287 89.001335,78.509132 89.001968,78.267548 
z"/>
<path fill="#E1E2E2" opacity="1.000000" stroke="none" 
	d="
M108.032722,78.120041 
	C108.042114,77.708107 108.086784,77.537476 108.142807,77.469421 
	C108.768547,78.323448 109.338272,79.245537 109.977890,80.569824 
	C109.598358,80.980530 109.148926,80.989029 108.363327,81.000793 
	C108.025879,80.180031 108.024605,79.356003 108.032722,78.120041 
z"/>
<path fill="#B5B7B6" opacity="1.000000" stroke="none" 
	d="
M96.948326,81.046982 
	C96.629791,80.292564 96.311264,79.538139 96.017319,78.460716 
	C96.664307,78.842598 97.286705,79.547493 98.083702,80.484787 
	C98.258308,80.717186 98.113403,80.873772 97.786087,80.950043 
	C97.288620,81.033211 97.118469,81.040100 96.948326,81.046982 
z"/>
<path fill="#EFF5F6" opacity="1.000000" stroke="none" 
	d="
M92.327667,44.191647 
	C92.764809,44.963646 92.808868,45.641262 92.799805,46.656372 
	C92.333679,47.002789 91.920662,47.011719 91.197998,47.033363 
	C90.126900,47.672333 89.365463,48.298584 88.305359,48.985016 
	C87.921181,46.288624 87.292488,43.100853 92.327667,44.191647 
z"/>
<path fill="#DBF9E6" opacity="1.000000" stroke="none" 
	d="
M165.291473,63.008316 
	C164.968231,62.312431 164.937653,61.455681 164.952820,60.307564 
	C165.300598,60.079559 165.602631,60.142921 166.333176,60.398468 
	C166.369156,61.342922 165.976639,62.095188 165.291473,63.008316 
z"/>
<path fill="#9A9C9B" opacity="1.000000" stroke="none" 
	d="
M90.857758,80.400925 
	C90.891045,79.604790 90.971992,79.172829 91.103195,78.415054 
	C91.861862,78.066971 92.570274,78.044701 93.633896,78.024635 
	C93.389275,79.103447 92.789436,80.180046 92.191071,81.594704 
	C91.975342,82.220573 91.758156,82.508385 91.281990,82.880127 
	C90.983810,82.231071 90.944618,81.498085 90.857758,80.400925 
z"/>
<path fill="#D1D3D2" opacity="1.000000" stroke="none" 
	d="
M96.888359,81.268097 
	C97.118469,81.040100 97.288620,81.033211 97.713760,81.028458 
	C97.798119,81.587517 97.627487,82.144432 97.197128,82.850845 
	C96.901070,82.496628 96.864731,81.992920 96.888359,81.268097 
z"/>
<path fill="#9A9C9B" opacity="1.000000" stroke="none" 
	d="
M93.317741,80.559624 
	C93.256294,80.500511 93.467033,80.479515 93.467033,80.479515 
	C93.467033,80.479515 93.379189,80.618736 93.317741,80.559624 
z"/>
<path fill="#EBEBF0" opacity="1.000000" stroke="none" 
	d="
M144.134369,77.878159 
	C144.168137,77.428261 144.491852,76.875793 144.964249,76.573685 
	C144.883377,77.141228 144.653854,77.458412 144.134369,77.878159 
z"/>
<path fill="#CFF0EE" opacity="1.000000" stroke="none" 
	d="
M41.017834,61.179314 
	C39.972996,60.951405 39.192741,60.561977 38.204185,59.745457 
	C38.884514,58.210232 39.773140,57.102104 40.976326,55.921638 
	C41.806568,55.217342 42.322247,54.585384 42.837925,53.953423 
	C43.387218,53.987110 43.936508,54.020798 44.897629,54.094467 
	C43.967110,56.428898 42.624763,58.723347 41.017834,61.179314 
z"/>
<path fill="#559E87" opacity="1.000000" stroke="none" 
	d="
M48.505531,73.697571 
	C48.137863,75.031532 47.461910,76.495789 46.384899,77.977020 
	C45.411110,77.789993 44.838379,77.585999 44.093166,77.120522 
	C45.346203,75.848656 46.771725,74.838264 48.505531,73.697571 
z"/>
<path fill="#559E87" opacity="1.000000" stroke="none" 
	d="
M42.614475,77.858658 
	C42.418232,78.050415 41.903053,78.303627 41.205765,78.368866 
	C41.447613,78.093964 41.871578,78.007042 42.614475,77.858658 
z"/>
<path fill="#5D9E90" opacity="1.000000" stroke="none" 
	d="
M28.265814,74.997025 
	C28.090912,74.635712 28.214979,74.249565 28.671257,73.916748 
	C28.857239,74.304108 28.711012,74.638145 28.265814,74.997025 
z"/>
<path fill="#4E8BA4" opacity="1.000000" stroke="none" 
	d="
M25.348904,63.909340 
	C25.318684,59.896347 25.288465,55.883358 25.627220,51.455994 
	C26.647997,51.029118 27.299801,51.016613 28.257324,51.137917 
	C30.044792,52.194374 31.526537,53.117016 33.004555,54.409836 
	C32.995041,55.520382 32.989262,56.260750 32.642151,56.959625 
	C31.040592,56.040810 29.780365,55.163483 28.520138,54.286152 
	C28.010958,54.464172 27.501778,54.642189 26.992598,54.820206 
	C27.659836,57.848656 28.327072,60.877102 28.699642,63.988358 
	C27.998072,64.101738 27.591169,64.132317 26.880352,64.104446 
	C26.167257,64.000443 25.758081,63.954891 25.348904,63.909340 
z"/>
<path fill="#5C9F91" opacity="1.000000" stroke="none" 
	d="
M32.983482,57.001114 
	C32.989262,56.260750 32.995041,55.520382 33.355919,54.473900 
	C35.711704,54.744209 37.712395,55.320633 39.949837,55.925331 
	C40.186596,55.953606 40.661762,55.993977 40.661766,55.993977 
	C39.773140,57.102104 38.884514,58.210232 37.808228,59.573143 
	C36.276680,60.930454 34.932789,62.032990 32.994041,63.216278 
	C31.968954,63.290928 31.538729,63.284817 31.189301,62.916588 
	C31.841227,60.703350 32.412354,58.852234 32.983482,57.001114 
z"/>
<path fill="#6C9981" opacity="1.000000" stroke="none" 
	d="
M40.976326,55.921638 
	C40.661762,55.993977 40.186596,55.953606 40.032619,55.574654 
	C37.925995,53.437531 35.973347,51.679363 34.113464,49.692299 
	C34.471897,49.048454 34.737568,48.633507 35.003239,48.218555 
	C38.332859,48.722122 42.102612,48.550877 42.770100,53.596741 
	C42.322247,54.585384 41.806568,55.217342 40.976326,55.921638 
z"/>
<path fill="#7AA4AF" opacity="1.000000" stroke="none" 
	d="
M34.554363,48.158325 
	C34.737568,48.633507 34.471897,49.048454 33.703468,49.718422 
	C31.451006,50.316998 29.701303,50.660553 27.951603,51.004105 
	C27.299801,51.016613 26.647997,51.029118 25.673710,51.080849 
	C26.128477,50.071434 26.757206,48.321564 27.713661,48.118984 
	C29.754202,47.686787 31.964653,48.056786 34.554363,48.158325 
z"/>
<path fill="#CFF0EE" opacity="1.000000" stroke="none" 
	d="
M31.108501,63.278706 
	C31.538729,63.284817 31.968954,63.290928 32.709465,63.387802 
	C31.311632,65.290146 29.603514,67.101730 27.494366,68.653366 
	C27.123648,66.983238 27.153957,65.573059 27.184269,64.162888 
	C27.591169,64.132317 27.998072,64.101738 28.997074,64.042236 
	C30.095619,63.768444 30.602060,63.523575 31.108501,63.278706 
z"/>
<path fill="#7AA4AF" opacity="1.000000" stroke="none" 
	d="
M26.880352,64.104446 
	C27.153957,65.573059 27.123648,66.983238 27.171721,68.707855 
	C24.996410,69.516083 24.996410,69.516083 25.243696,64.309647 
	C25.758081,63.954891 26.167257,64.000443 26.880352,64.104446 
z"/>
<path fill="#699F74" opacity="1.000000" stroke="none" 
	d="
M128.126114,72.734955 
	C126.921921,73.068214 125.876892,73.074669 124.280212,72.720963 
	C122.828590,70.550064 121.928619,68.739326 121.013367,66.613373 
	C120.334534,64.848869 119.670982,63.399578 119.007439,61.950287 
	C119.007439,61.950287 118.830986,61.706196 119.236160,61.357841 
	C119.394241,59.320007 119.147156,57.630524 118.900063,55.941044 
	C118.900063,55.941044 118.819321,55.980110 118.797409,55.941216 
	C119.410973,56.099422 120.046440,56.296520 121.190186,56.706787 
	C123.061050,61.218338 124.423637,65.516716 125.786217,69.815094 
	C126.186394,69.864738 126.586571,69.914391 126.986740,69.964035 
	C127.264633,68.969208 127.542519,67.974373 127.820404,66.979546 
	C128.622543,64.528877 129.218704,61.980499 130.315063,59.669411 
	C130.850433,58.540871 132.317627,57.854382 133.670532,57.021503 
	C132.080444,62.186184 130.182861,67.297165 128.126114,72.734955 
z"/>
<path fill="#DDF8E1" opacity="1.000000" stroke="none" 
	d="
M89.106880,62.035145 
	C88.565056,61.090057 88.023232,60.144966 87.686356,58.895912 
	C91.805641,58.726517 95.723801,59.029785 99.633080,58.941238 
	C102.654373,58.872803 105.669220,58.039272 108.677650,58.090546 
	C110.132416,58.115341 111.565842,59.392185 113.036301,60.521103 
	C113.063667,60.940063 113.030060,60.969555 112.647675,61.139557 
	C109.251137,60.554535 106.163673,58.695808 103.201080,61.729488 
	C103.973404,63.009979 104.613914,64.071930 105.011475,65.152802 
	C104.444160,65.267334 104.189621,65.456711 103.706772,65.884033 
	C103.026718,66.251015 102.644768,66.473824 102.118797,66.377625 
	C101.403114,65.691696 100.831459,65.324783 100.194794,64.587296 
	C97.397980,59.289112 95.183846,58.850903 89.106880,62.035145 
z"/>
<path fill="#DDF8E1" opacity="1.000000" stroke="none" 
	d="
M109.138519,75.696266 
	C107.764412,75.624573 106.474495,75.175980 105.074158,74.411247 
	C104.963730,74.095116 105.000671,74.037781 105.275024,73.834000 
	C112.934181,72.642494 112.919861,72.642723 112.795746,64.786201 
	C112.775681,63.515537 112.947136,62.241848 113.030060,60.969555 
	C113.030060,60.969555 113.063667,60.940063 113.080063,60.924870 
	C113.372101,64.724731 114.016014,68.571053 113.696449,72.335579 
	C113.601952,73.448746 110.789612,74.331192 109.138519,75.696266 
z"/>
<path fill="#E0F6E6" opacity="1.000000" stroke="none" 
	d="
M118.999100,62.358852 
	C119.670982,63.399578 120.334534,64.848869 120.999695,66.981064 
	C120.984177,68.153961 120.967049,68.643959 120.949921,69.133957 
	C120.296867,67.011780 119.643814,64.889595 118.999100,62.358852 
z"/>
<path fill="#D8F5DF" opacity="1.000000" stroke="none" 
	d="
M120.961746,69.489334 
	C120.967049,68.643959 120.984177,68.153961 121.014977,67.296272 
	C121.928619,68.739326 122.828590,70.550064 123.889122,72.672020 
	C123.627380,72.989639 123.205070,72.996056 122.466087,73.005341 
	C121.757462,71.953705 121.365517,70.899200 120.961746,69.489334 
z"/>
<path fill="#E0F6E6" opacity="1.000000" stroke="none" 
	d="
M118.545273,56.106728 
	C119.147156,57.630524 119.394241,59.320007 119.309013,61.226044 
	C118.714622,59.719204 118.452545,57.995811 118.545273,56.106728 
z"/>
<path fill="#D8F5DF" opacity="1.000000" stroke="none" 
	d="
M127.477348,66.902260 
	C127.542519,67.974373 127.264633,68.969208 126.986740,69.964035 
	C126.586571,69.914391 126.186394,69.864738 125.786217,69.815094 
	C124.423637,65.516716 123.061050,61.218338 121.532913,56.554802 
	C122.524803,57.796997 123.859306,59.308929 124.791176,61.037872 
	C125.772667,62.858864 126.369431,64.887222 127.477348,66.902260 
z"/>
<path fill="#69A477" opacity="1.000000" stroke="none" 
	d="
M88.925201,62.390915 
	C95.183846,58.850903 97.397980,59.289112 100.103333,64.980270 
	C99.084877,68.432343 98.092888,71.120865 97.100891,73.809387 
	C95.329163,73.633766 93.557434,73.458145 91.135719,73.111038 
	C90.296555,72.968796 90.107376,72.998039 89.918190,73.027290 
	C89.918190,73.027290 90.005615,73.062012 89.994080,73.107452 
	C89.569534,69.684166 89.156525,66.215424 88.925201,62.390915 
M92.333191,64.241379 
	C92.333191,66.380737 92.333191,68.520096 92.333191,70.771271 
	C96.267403,70.768646 97.797951,68.863075 97.027679,65.872749 
	C96.767624,64.863159 94.365860,64.405251 92.333191,64.241379 
z"/>
<path fill="#62AD74" opacity="1.000000" stroke="none" 
	d="
M160.518738,65.712051 
	C160.524918,66.449944 160.322037,66.974113 160.119156,67.498276 
	C159.848709,67.366699 159.578262,67.235130 159.307816,67.103561 
	C159.641769,66.568481 159.975723,66.033401 160.518738,65.712051 
z"/>
<path fill="#62AD74" opacity="1.000000" stroke="none" 
	d="
M162.475769,64.456345 
	C162.524551,64.428490 162.427002,64.484207 162.475769,64.456345 
z"/>
<path fill="#C7EFCD" opacity="1.000000" stroke="none" 
	d="
M97.473053,73.857719 
	C98.092888,71.120865 99.084877,68.432343 100.168335,65.350838 
	C100.831459,65.324783 101.403114,65.691696 102.030251,66.714027 
	C103.057373,69.592224 104.029022,71.815002 105.000671,74.037781 
	C105.000671,74.037781 104.963730,74.095116 104.930344,74.087952 
	C102.546387,74.022537 100.195801,73.964294 97.473053,73.857719 
z"/>
<path fill="#D6F8DC" opacity="1.000000" stroke="none" 
	d="
M90.017487,73.262283 
	C90.107376,72.998039 90.296555,72.968796 90.771004,72.972191 
	C90.743111,73.168976 90.429955,73.333122 90.017487,73.262283 
z"/>
<path fill="#CEF2EC" opacity="1.000000" stroke="none" 
	d="
M28.257324,51.137917 
	C29.701303,50.660553 31.451006,50.316998 33.610703,49.947319 
	C35.973347,51.679363 37.925995,53.437531 39.795860,55.546375 
	C37.712395,55.320633 35.711704,54.744209 33.359650,54.103722 
	C31.526537,53.117016 30.044792,52.194374 28.257324,51.137917 
z"/>
<path fill="#3893AC" opacity="1.000000" stroke="none" 
	d="
M31.189301,62.916588 
	C30.602060,63.523575 30.095619,63.768444 29.291744,63.959435 
	C28.327072,60.877102 27.659836,57.848656 26.992598,54.820206 
	C27.501778,54.642189 28.010958,54.464172 28.520138,54.286152 
	C29.780365,55.163483 31.040592,56.040810 32.642151,56.959625 
	C32.412354,58.852234 31.841227,60.703350 31.189301,62.916588 
z"/>
<path fill="#73AC81" opacity="1.000000" stroke="none" 
	d="
M105.275024,73.834000 
	C104.029022,71.815002 103.057373,69.592224 102.174271,67.033035 
	C102.644768,66.473824 103.026718,66.251015 103.952354,65.883072 
	C104.826973,65.634743 105.079773,65.433395 105.254425,65.133881 
	C104.613914,64.071930 103.973404,63.009979 103.201080,61.729488 
	C106.163673,58.695808 109.251137,60.554535 112.647675,61.139557 
	C112.947136,62.241848 112.775681,63.515537 112.795746,64.786201 
	C112.919861,72.642723 112.934181,72.642494 105.275024,73.834000 
z"/>
<path fill="#C7EFCD" opacity="1.000000" stroke="none" 
	d="
M105.011475,65.152802 
	C105.079773,65.433395 104.826973,65.634743 104.250458,65.738884 
	C104.189621,65.456711 104.444160,65.267334 105.011475,65.152802 
z"/>
<path fill="#D5F8D8" opacity="1.000000" stroke="none" 
	d="
M92.638046,63.968296 
	C94.365860,64.405251 96.767624,64.863159 97.027679,65.872749 
	C97.797951,68.863075 96.267403,70.768646 92.333191,70.771271 
	C92.333191,68.520096 92.333191,66.380737 92.638046,63.968296 
z"/>
</svg>